<?xml version="1.0" encoding="utf-8"?>
<!-- Generator: Adobe Illustrator 24.3.0, SVG Export Plug-In . SVG Version: 6.00 Build 0)  -->
<svg version="1.1" id="Calque_1" xmlns="http://www.w3.org/2000/svg" xmlns:xlink="http://www.w3.org/1999/xlink" x="0px" y="0px"
	 viewBox="0 0 24 24" style="enable-background:new 0 0 24 24;" xml:space="preserve">
<style type="text/css">
	.st0{fill:#EFEEEE;}
	.st1{fill:#FF0000;}
</style>
<path class="st0" d="M13.09,18H4V8l8,5l8-5v5.09c0.72,0.12,1.39,0.37,2,0.72V6c0-1.1-0.9-2-2-2H4C2.9,4,2,4.9,2,6v12
	c0,1.1,0.9,2,2,2h9.09C13.04,19.67,13,19.34,13,19S13.04,18.33,13.09,18 M20,6l-8,5L4,6H20"/>
<polygon class="st1" points="20.41,19 22.54,21.12 21.12,22.54 19,20.41 16.88,22.54 15.47,21.12 17.59,19 15.47,16.88 16.88,15.47 
	19,17.59 21.12,15.47 22.54,16.88 "/>
</svg>
