<?xml version="1.0" encoding="utf-8"?>
<!-- Generator: Adobe Illustrator 24.3.0, SVG Export Plug-In . SVG Version: 6.00 Build 0)  -->
<svg version="1.1" id="Calque_1" xmlns="http://www.w3.org/2000/svg" xmlns:xlink="http://www.w3.org/1999/xlink" x="0px" y="0px"
	 viewBox="0 0 74.9 87.4" style="enable-background:new 0 0 74.9 87.4;" xml:space="preserve">
<style type="text/css">
	.st0{fill:#EFEEEE;}
	.st1{fill:url(#SVGID_1_);}
</style>
<g>
	<g>
		<g>
			<path class="st0" d="M48.2,66.3c-7.1,4.5-16.6,3.7-22.8-2.5c-7.2-7.1-7.2-18.8,0-25.9s18.8-7.2,25.9,0c6.2,6.2,7.1,15.6,2.6,22.7
				l3.1,3.2l-0.1-37.4l-26.4,0.1l0-26.5L0,0.1l0.3,79.3l56.8-0.1l0-4L48.2,66.3z"/>
			
				<linearGradient id="SVGID_1_" gradientUnits="userSpaceOnUse" x1="1171.6786" y1="-221.8189" x2="1150.9324" y2="-241.663" gradientTransform="matrix(1 -2.549846e-03 -2.549846e-03 -1 -1123.6985 -177.809)">
				<stop  offset="0.1927" style="stop-color:#E6007D"/>
				<stop  offset="1" style="stop-color:#5C2582"/>
			</linearGradient>
			<circle class="st1" cx="38.3" cy="50.8" r="13.4"/>
		</g>
		<polygon class="st0" points="34.6,0.5 34.6,22.4 56.5,22.4 		"/>
	</g>
	<path class="st0" d="M79.7,79L57.8,58.5L57,61.1L77.1,80c1.1,1,0.6,2.6-0.9,3.5l-1.4,0.8c-1.7,1-3.7,0.9-4.8,0L54.6,69.8L54,72.2
		l14.4,13.5c1.8,1.6,5,1.7,7.6,0.1l2-1.2C80.8,83,81.4,80.5,79.7,79z"/>
</g>
</svg>
