<?xml version="1.0" encoding="utf-8"?>
<!-- Generator: Adobe Illustrator 24.3.0, SVG Export Plug-In . SVG Version: 6.00 Build 0)  -->
<svg version="1.1" id="Calque_1" xmlns="http://www.w3.org/2000/svg" xmlns:xlink="http://www.w3.org/1999/xlink" x="0px" y="0px"
	 viewBox="0 0 440.88 214" style="enable-background:new 0 0 440.88 214;" xml:space="preserve">
<style type="text/css">
	.st0{fill:#FFFFFF;}
</style>
<g>
	<g>
		<path class="st0" d="M240,240"/>
		<g>
			<g>
				<path class="st0" d="M23.98,52.29C41.76,25.35,72.3,7.57,107,7.57V0c-37.34,0-70.2,19.14-89.34,48.13L23.98,52.29z"/>
			</g>
		</g>
		<g>
			<g>
				<g>
					
						<rect x="37.7" y="177.88" transform="matrix(0.6935 -0.7205 0.7205 0.6935 -117.7327 85.5502)" class="st0" width="7.96" height="6.52"/>
				</g>
				<g>
					
						<rect x="14.6" y="201.87" transform="matrix(0.6935 -0.7205 0.7205 0.6935 -142.0961 76.2633)" class="st0" width="7.96" height="6.52"/>
				</g>
				<g>
					
						<rect x="26.15" y="189.87" transform="matrix(0.6935 -0.7205 0.7205 0.6935 -129.9109 80.9017)" class="st0" width="7.96" height="6.52"/>
				</g>
				<g>
					
						<rect x="173.31" y="29.6" transform="matrix(0.6935 -0.7205 0.7205 0.6935 30.6647 137.8074)" class="st0" width="7.96" height="6.52"/>
				</g>
				<g>
					
						<rect x="196.41" y="5.61" transform="matrix(0.6935 -0.7205 0.7205 0.6935 55.0316 147.0979)" class="st0" width="7.96" height="6.52"/>
				</g>
				<g>
					
						<rect x="184.86" y="17.61" transform="matrix(0.6935 -0.7205 0.7205 0.6935 42.8442 142.448)" class="st0" width="7.96" height="6.52"/>
				</g>
			</g>
			<g>
				<g>
					<path class="st0" d="M189.3,162.8c-17.87,26.31-48.02,43.61-82.22,43.63V214c38.84-0.03,72.82-20.76,91.55-51.75
						c-2.56,0.38-5.18,0.58-7.85,0.58C190.28,162.84,189.79,162.81,189.3,162.8z"/>
				</g>
				<g>
					<path class="st0" d="M37.03,70.98l-9.17-5.3c-2.46,4.7-4.46,9.58-6.03,14.57L32.05,83C33.37,78.89,35.03,74.87,37.03,70.98z"/>
				</g>
				<g>
					<path class="st0" d="M17.83,103.21h10.58c0.21-4.33,0.77-8.64,1.69-12.89l-10.23-2.74C18.73,92.73,18.05,97.96,17.83,103.21z"
						/>
				</g>
				<g>
					<path class="st0" d="M48.75,54.11l-7.48-7.48c-3.62,3.94-6.83,8.12-9.61,12.5l9.17,5.29C43.14,60.82,45.78,57.37,48.75,54.11z"
						/>
				</g>
				<g>
					<path class="st0" d="M46.63,41.27l7.48,7.48c30.88-28.08,78.7-27.21,108.53,2.61c2.71,2.71,5.17,5.57,7.39,8.55
						c3.4-1.43,6.99-2.51,10.71-3.22c-3.08-4.51-6.62-8.81-10.62-12.81C136.16,9.93,81.65,9.06,46.63,41.27z"/>
				</g>
				<g>
					<path class="st0" d="M177.88,161.26c-3.67-0.91-7.19-2.19-10.52-3.81c-1.48,1.78-3.05,3.52-4.72,5.19
						c-30.73,30.73-80.55,30.73-111.28,0c-4.05-4.05-7.56-8.43-10.54-13.05l-9.17,5.29c3.44,5.4,7.51,10.52,12.23,15.24
						c34.86,34.86,91.37,34.86,126.23,0C172.94,167.3,175.52,164.34,177.88,161.26z"/>
				</g>
				<g>
					<path class="st0" d="M32.05,131.01l-10.22,2.74c1.56,4.99,3.57,9.87,6.03,14.57l9.17-5.3
						C35.03,139.14,33.37,135.12,32.05,131.01z"/>
				</g>
				<g>
					<path class="st0" d="M28.41,110.79H17.83c0.22,5.25,0.9,10.48,2.05,15.63l10.23-2.74C29.18,119.43,28.62,115.12,28.41,110.79z"
						/>
				</g>
				<g>
					<path class="st0" d="M107,7.57V0C47.91,0,0,47.91,0,107h7.57C7.57,52.09,52.09,7.57,107,7.57z"/>
				</g>
			</g>
			<g>
				<g>
					<path class="st0" d="M377.89,147.3c0.25,4.61-0.88,7.88-3.27,10.49c-4.53,4.95-13.02,5.62-18.28,0.81
						c-5.04-4.61-5.71-13.02-0.86-18.32c2.39-2.61,5.76-4.07,9.82-4.25l0.23,5.08c-2.54,0.11-4.88,0.98-6.33,2.57
						c-2.95,3.23-2.73,8.22,0.54,11.21c3.23,2.95,8.18,2.69,11.13-0.53c1.54-1.68,2.23-4.21,1.98-6.87L377.89,147.3z"/>
				</g>
				<g>
					<path class="st0" d="M380.28,132.44c-5.04-4.61-5.71-13.02-0.86-18.32c4.61-5.04,13.02-5.71,18.37-0.82
						c4.99,4.57,5.58,13.07,0.77,18.33C393.99,136.62,385.54,137.25,380.28,132.44z M383.68,128.72c3.23,2.95,8.18,2.69,11.13-0.53
						c2.99-3.27,2.82-8.23-0.41-11.18c-3.27-2.99-8.26-2.77-11.26,0.5C380.18,120.74,380.4,125.73,383.68,128.72z"/>
				</g>
				<g>
					<path class="st0" d="M440.96,84.67l-3.4,3.71l-11.27-10.31c-2.3-2.1-5.85-1.94-7.96,0.35c-2.14,2.34-1.99,5.9,0.31,8
						l11.27,10.31l-3.4,3.71l-11.27-10.31c-2.3-2.1-5.85-1.95-7.96,0.35c-2.1,2.3-1.94,5.85,0.35,7.96l11.27,10.31l-3.4,3.71
						l-18.83-17.23l3.4-3.71l0.88,0.81c0.34-1.88,1.19-3.7,2.61-5.25c2.18-2.39,5.36-3.54,8.33-3.42c-0.34-3,0.53-6.26,2.71-8.64
						c3.96-4.33,10.74-4.63,15.07-0.67L440.96,84.67z"/>
				</g>
			</g>
		</g>
		<g>
			<g>
				<g>
					<path class="st0" d="M422.89,27.33v12.05h4.43c0.08,1.1,0.11,1.95,0.11,2.56c0,2.08-0.53,3.52-1.59,4.32
						c-0.8,0.61-2.22,0.97-4.26,1.08v5c1.17,0.08,2.1,0.11,2.79,0.11c3.56,0,6.08-1.17,7.56-3.52c0.98-1.51,1.48-4.38,1.48-8.58
						V27.33H422.89z"/>
				</g>
				<g>
					<g>
						<g>
							<path class="st0" d="M127.74,81.05l2.42-8.25h10.35l-33.69-33.69l-67.97,67.97l67.97,67.97l31.88-31.88h-9.24l-1.85-7.96
								h-0.57c-0.85,1.61-2.06,3.03-3.63,4.27c-1.56,1.23-3.39,2.27-5.47,3.13c-2.09,0.85-4.34,1.52-6.75,1.99
								c-2.42,0.47-4.91,0.71-7.47,0.71c-5.88,0-11.19-1.04-15.92-3.13c-4.74-2.08-8.77-4.88-12.08-8.39
								c-3.32-3.51-5.88-7.49-7.68-11.94c-1.8-4.45-2.7-9.1-2.7-13.93c0-4.64,0.9-9.19,2.7-13.65c1.8-4.45,4.36-8.44,7.68-11.94
								c3.32-3.51,7.34-6.35,12.08-8.53c4.74-2.18,10.05-3.27,15.92-3.27c5.88,0,10.71,0.99,14.5,2.98c3.79,1.99,6.73,4.5,8.82,7.54
								H127.74z"/>
						</g>
						<g>
							<g>
								<path class="st0" d="M119.7,91.01c-2.13-1.99-4.57-3.51-7.32-4.55c-2.75-1.04-5.64-1.56-8.67-1.56
									c-3.03,0-5.88,0.52-8.53,1.56c-2.65,1.04-4.95,2.56-6.9,4.55c-1.94,1.99-3.46,4.41-4.55,7.25
									c-1.09,2.84-1.64,6.07-1.64,9.67c0,3.41,0.54,6.54,1.64,9.38c1.09,2.84,2.61,5.26,4.55,7.25c1.94,1.99,4.24,3.55,6.9,4.69
									c2.65,1.14,5.5,1.71,8.53,1.71c3.13,0,6.07-0.54,8.82-1.64c2.75-1.09,5.19-2.63,7.32-4.62c2.13-1.99,3.81-4.41,5.05-7.25
									c1.23-2.84,1.85-6.02,1.85-9.53c0-3.6-0.64-6.82-1.92-9.67C123.54,95.41,121.83,93,119.7,91.01z"/>
							</g>
						</g>
						<g>
							<path class="st0" d="M163.3,84.86c-1.81,1.86-3.38,3.87-4.74,6.01l-14.91-14.91v52.67h9.57l3.63-3.63
								c1.7,3.4,3.89,6.47,6.58,9.19c3.27,3.31,7.21,5.99,11.84,8.03c4.63,2.04,9.75,3.06,15.38,3.06c6.17,0,11.71-1.18,16.6-3.54
								c4.9-2.36,9.03-5.53,12.39-9.53l-12.25-8.57c-2,2.45-4.42,4.38-7.28,5.78c-2.86,1.41-6.01,2.11-9.46,2.11
								c-2.99,0-5.79-0.54-8.37-1.63c-2.59-1.09-4.83-2.61-6.74-4.56c-1.91-1.95-3.43-4.29-4.56-7.01c-1.14-2.72-1.7-5.72-1.7-8.98
								c0-3.45,0.57-6.53,1.7-9.26c1.13-2.72,2.65-5.04,4.56-6.94c1.9-1.91,4.15-3.36,6.74-4.36c2.59-1,5.38-1.5,8.37-1.5
								c3.36,0,6.49,0.68,9.39,2.04c2.9,1.36,5.35,3.31,7.35,5.85l11.99-8.49v2.91h9.22v30.08c0,4.72,0.63,8.67,1.91,11.84
								c1.27,3.18,3.02,5.74,5.24,7.69c2.22,1.95,4.88,3.33,7.96,4.15c3.08,0.82,6.49,1.23,10.21,1.23c1.27,0,2.45-0.05,3.54-0.14
								c1.09-0.09,2.13-0.23,3.13-0.41v-14.29c-0.46,0.09-0.89,0.16-1.29,0.2c-0.41,0.05-0.84,0.07-1.29,0.07
								c-1.63,0-3.24-0.16-4.83-0.48c-1.59-0.32-2.99-0.88-4.22-1.7c-1.23-0.82-2.22-1.95-2.99-3.4c-0.77-1.45-1.16-3.31-1.16-5.58
								V89.63h15.79V75.88H244.8V53.15l-16.2,3.27v19.46h-9.22V86.5c-3.34-3.75-7.4-6.84-12.19-9.26
								c-4.85-2.45-10.37-3.67-16.54-3.67c-5.72,0-10.89,1.05-15.52,3.13C170.51,78.79,166.57,81.51,163.3,84.86z"/>
						</g>
						<g>
							<polygon class="st0" points="302.4,131.39 293.71,131.39 293.71,75.88 269.75,75.88 269.75,89.76 277.51,89.76 
								277.51,131.39 269.75,131.39 269.75,145.27 302.4,145.27 							"/>
						</g>
						<g>
							
								<rect x="277.85" y="47.77" transform="matrix(0.7071 -0.7071 0.7071 0.7071 44.1451 218.3201)" class="st0" width="15.52" height="16.2"/>
						</g>
					</g>
				</g>
				<g>
					<polygon class="st0" points="395.81,57.64 333.68,124.6 322.46,75.88 306.11,75.88 306.11,75.88 302.94,75.88 302.94,89.82 
						309.32,89.82 322.11,145.3 335,145.3 416.3,57.64 					"/>
				</g>
			</g>
		</g>
	</g>
</g>
</svg>
