<?xml version="1.0" encoding="utf-8"?>
<!-- Generator: Adobe Illustrator 24.3.0, SVG Export Plug-In . SVG Version: 6.00 Build 0)  -->
<svg version="1.1" id="Calque_1" xmlns="http://www.w3.org/2000/svg" xmlns:xlink="http://www.w3.org/1999/xlink" x="0px" y="0px"
	 viewBox="0 0 298.59 102.73" style="enable-background:new 0 0 298.59 102.73;" xml:space="preserve">
<style type="text/css">
	.st0{fill:#FFFFFF;}
	.st1{fill:#1E1E1C;}
	.st2{fill:url(#SVGID_1_);}
	.st3{fill:url(#SVGID_2_);}
	.st4{fill:url(#SVGID_3_);}
</style>
<g>
	<g>
		<polygon class="st0" points="298.59,102.73 0,102.73 0,0 230.12,0 		"/>
		<g>
			<g>
				<g>
					<path class="st1" d="M127.63,51.65c-1.18-0.87-2.72-1.8-4.64-2.82c-0.05-0.02-0.09-0.05-0.12-0.07
						c-0.03-0.02-0.08-0.05-0.12-0.07c-0.28-0.14-0.55-0.28-0.81-0.42c-0.27-0.14-0.53-0.27-0.78-0.38
						c-1.34-0.67-2.38-1.24-3.13-1.71c-0.75-0.47-1.37-1.06-1.87-1.75c-0.5-0.69-0.74-1.51-0.74-2.46v-3.36
						c0-1.15,0.34-2.06,1.02-2.72c0.68-0.66,1.64-0.99,2.89-0.99c1.18,0,2.09,0.36,2.75,1.09c0.66,0.73,0.99,1.74,0.99,3.03v2.87
						l8.55-0.1v-2.84c0-2.61-0.48-4.84-1.45-6.7c-0.97-1.86-2.38-3.27-4.22-4.24c-1.85-0.97-4.05-1.45-6.61-1.45
						c-2.63,0-4.88,0.48-6.75,1.45c-1.87,0.97-3.29,2.37-4.27,4.2c-0.98,1.83-1.47,4.03-1.47,6.59v2.59c0,2.47,0.44,4.55,1.31,6.23
						c0.88,1.68,1.97,3.04,3.29,4.07c1.31,1.03,2.91,2.01,4.78,2.96l0.45,0.21c0.09,0.05,0.18,0.09,0.26,0.14
						c0.08,0.05,0.17,0.09,0.26,0.14c1.41,0.69,2.52,1.29,3.34,1.78c0.82,0.5,1.49,1.08,2.01,1.76c0.52,0.68,0.78,1.48,0.78,2.41
						v4.39c0,1.25-0.34,2.23-1.02,2.94c-0.68,0.72-1.64,1.07-2.89,1.07c-1.27,0-2.26-0.36-2.98-1.09s-1.07-1.72-1.07-2.99v-2.7
						l-8.55,0.07v2.7c0,2.61,0.5,4.84,1.5,6.7c1,1.86,2.45,3.28,4.34,4.26c1.89,0.98,4.15,1.47,6.78,1.47
						c2.61,0,4.84-0.49,6.71-1.47c1.87-0.98,3.29-2.4,4.27-4.26c0.98-1.86,1.47-4.09,1.47-6.7v-4.19c0-2.45-0.42-4.45-1.25-6.02
						C129.81,53.73,128.81,52.51,127.63,51.65z"/>
					<polygon class="st1" points="159.78,35.33 159.78,27.09 134.59,27.09 134.59,35.33 142.89,35.33 142.89,77.41 151.47,77.41 
						151.47,35.33 					"/>
					<path class="st1" d="M170.33,27.09l-12.01,50.32h8.51l1.54-7.82h9.93l1.54,7.82h8.51l-12.01-50.32H170.33z M169.96,61.56
						l3.38-17.13l3.38,17.13H169.96z"/>
					<path class="st1" d="M215.18,32.3c-0.9-1.7-2.2-2.99-3.91-3.88c-1.71-0.89-3.76-1.33-6.16-1.33h-4.43h-2.87h-5.71v50.32h5.71
						h2.87h4.39c2.4,0,4.46-0.44,6.18-1.33s3.03-2.18,3.93-3.88c0.9-1.7,1.35-3.72,1.35-6.07V38.38
						C216.53,36.02,216.08,34,215.18,32.3z M207.84,65.16c0,1.27-0.31,2.25-0.93,2.96c-0.62,0.7-1.51,1.06-2.66,1.06h-3.56V35.33
						h3.56c1.15,0,2.04,0.35,2.66,1.06c0.62,0.7,0.93,1.69,0.93,2.96V65.16z"/>
				</g>
			</g>
			<g>
				<g>
					<g>
						<linearGradient id="SVGID_1_" gradientUnits="userSpaceOnUse" x1="30.8131" y1="58.6215" x2="49.3093" y2="82.0433">
							<stop  offset="0.1927" style="stop-color:#E6007D"/>
							<stop  offset="1" style="stop-color:#FFFFFF"/>
						</linearGradient>
						<path class="st2" d="M46.87,71.17c0,0.01-0.01,0.02-0.02,0.03c-0.17,0.32-0.41,0.55-0.69,0.76c-0.2,0.15-0.38,0.31-0.53,0.51
							c-0.19,0.24-0.41,0.46-0.62,0.68c-0.04,0.05-0.1,0.08-0.12,0.14c-0.09,0.25-0.29,0.39-0.49,0.54
							c-0.1,0.07-0.18,0.17-0.26,0.26c-0.18,0.2-0.35,0.42-0.53,0.62c-0.06,0.07-0.12,0.12-0.18,0.19
							c-0.12,0.14-0.34,0.15-0.44,0.32c-0.09,0.15-0.2,0.28-0.31,0.41c-0.08,0.1-0.16,0.19-0.31,0.18c-0.05,0-0.1,0.02-0.14,0.05
							c-0.22,0.21-0.44,0.42-0.59,0.7c-0.14,0.27-0.34,0.51-0.61,0.67c-0.09,0.06-0.18,0.13-0.25,0.22
							c-0.09,0.11-0.16,0.23-0.28,0.33c-0.09,0.08-0.11,0.24-0.18,0.36c-0.1,0.19-0.08,0.38-0.06,0.58
							c0.01,0.09,0.05,0.17,0.13,0.21c0.07,0.04,0.13,0.06,0.2-0.01c0.11-0.1,0.24-0.18,0.33-0.29c0.21-0.23,0.37-0.49,0.4-0.81
							c0.01-0.18,0.08-0.33,0.17-0.48c0.33-0.53,0.76-0.97,1.22-1.38c0.07-0.06,0.13-0.15,0.2-0.22c0.28-0.28,0.54-0.58,0.88-0.78
							c0.07-0.04,0.13-0.11,0.2-0.17c0.31-0.29,0.59-0.59,0.87-0.91c0.14-0.17,0.28-0.34,0.48-0.45c0.06-0.03,0.11-0.1,0.16-0.15
							c0.4-0.42,0.78-0.85,1.15-1.3c0.05-0.07,0.09-0.15,0.14-0.22c0.06-0.09,0.12-0.19,0.2-0.26c0.09-0.08,0.16-0.16,0.23-0.24
							L46.87,71.17z"/>
					</g>
					<g>
						<path class="st1" d="M56.45,30.93l-0.55,2.44c2.35,0.26,4.9,0.97,7.52,2.32c1.71,1,3.59,3.4,4.32,5.74
							c0.71,2.24,1.34,3.32,1.37,3.91c0.36,1.39-0.9,1.97-1.02,2.8c0.38-0.06,0.72-0.16,0.9-0.34c0,0-0.09,0.44-0.89,0.68
							c0.16,0.97,1.24,2.66,2,3.32c0.81,0.7,1.69,1.78,0.44,2.52c-1.25,0.75-1.84,0.69-1.76,1.15c0.08,0.46,0.38,1.2,0.86,1.44
							c0.87,0.77-1.05,1.87-1.05,1.87S68.65,59,69,59.45c0.35,0.44,0.31,1.4-0.91,1.62c-1.22,0.22-0.81,1.35-0.66,1.88
							c0.15,0.53,0.67,3.35-3.16,3.14c-3.83-0.21-3.87-1.49-6.47-0.68c-0.75,0.82-1.34,1.69-1.79,2.58l27.89,6.25l7.93-35.39
							L56.45,30.93z"/>
						<path class="st1" d="M45.43,26.82c0.06,0.15,0.14,0.3,0.21,0.44c0.03,0.07,0.05,0.13,0.05,0.21c0.01,0.17,0.05,0.34,0.07,0.5
							c0.14,0.1,0.12,0.25,0.13,0.4c0,0.06,0.04,0.12,0.06,0.17c0.06,0.12,0.13,0.24,0.19,0.36c0.05,0.1,0.09,0.21,0.19,0.26
							c0.23,0.13,0.13,0.4,0.24,0.58c0.02,0.03,0.02,0.07,0.02,0.1c0,0.01,0,0.03-0.01,0.03c-0.09,0.11-0.04,0.18,0.06,0.24
							c0.06,0.04,0.1,0.09,0.13,0.17c0.16,0.39,0.46,0.69,0.71,1.02c0.04,0.05,0.09,0.09,0.14,0.12c0.09,0.05,0.31,0.23,0.37,0.31
							c0.06,0.07,0.13,0.16,0.21,0.21c0.24,0.14,0.33,0.36,0.36,0.61c0.02,0.13,0.07,0.25,0.16,0.32c0.16,0.11,0.25,0.27,0.35,0.42
							c0.11,0.16,0.24,0.32,0.33,0.49c0.08,0.15,0.22,0.14,0.35,0.15c0.14,0.01,0.28,0.07,0.42-0.05c0.17-0.15,0.25-0.34,0.29-0.54
							c0.05-0.27,0.19-0.5,0.28-0.76c0.05-0.14,0.15-0.25,0.09-0.41c-0.02-0.06,0.02-0.14,0.04-0.21c0.02-0.06,0.06-0.08,0.12-0.09
							l1.13-5.06H45.43z"/>
						<polygon class="st1" points="95.87,34.53 95.87,26.82 61.48,26.82 						"/>
						<polygon class="st1" points="88.25,78.21 95.87,78.21 95.87,44.21 						"/>
						<g>
							<linearGradient id="SVGID_2_" gradientUnits="userSpaceOnUse" x1="27.7261" y1="14.8643" x2="69.728" y2="68.0515">
								<stop  offset="0.1927" style="stop-color:#E6007D"/>
								<stop  offset="1" style="stop-color:#FFFFFF"/>
							</linearGradient>
							<path class="st3" d="M64.28,66.09c3.83,0.21,3.31-2.62,3.16-3.14c-0.15-0.53-0.55-1.66,0.66-1.88s1.26-1.18,0.91-1.62
								c-0.35-0.44-0.42-0.67-0.42-0.67s1.92-1.1,1.05-1.87c-0.47-0.24-0.78-0.98-0.86-1.44c-0.08-0.46,0.51-0.4,1.76-1.15
								c1.25-0.75,0.36-1.82-0.44-2.52c-0.75-0.66-1.83-2.35-2-3.32c0.8-0.24,0.89-0.68,0.89-0.68c-0.18,0.18-0.52,0.28-0.9,0.34
								c0.12-0.83,1.38-1.41,1.02-2.8c-0.03-0.59-0.66-1.68-1.37-3.91c-0.74-2.33-2.61-4.74-4.32-5.74
								c-2.64-1.36-5.21-2.07-7.59-2.32l-7.39,32.96l7.57,1.7c0.45-0.9,1.05-1.77,1.8-2.6C60.41,64.61,60.45,65.89,64.28,66.09z"/>
						</g>
						<polygon class="st1" points="44.49,70.64 44.49,78.21 78.24,78.21 						"/>
					</g>
				</g>
				<g>
					<linearGradient id="SVGID_3_" gradientUnits="userSpaceOnUse" x1="12.3549" y1="8.2322" x2="71.9661" y2="83.718">
						<stop  offset="0.1927" style="stop-color:#E6007D"/>
						<stop  offset="1" style="stop-color:#FFFFFF"/>
					</linearGradient>
					<path class="st4" d="M43.38,62.33c0.1,0.09,0.12,0.08,0.25-0.02c0.27-0.21,0.29-0.2,0.43,0.11c0.04,0.09,0.08,0.18,0.12,0.26
						l6.8-30.34c0-0.02,0-0.04,0-0.06c0-0.01,0.01-0.01,0.02-0.02l0.08-0.37c-0.01,0-0.01-0.01-0.01-0.01
						c-0.08-0.01-0.15,0.02-0.18,0.1c-0.02,0.07-0.07,0.16-0.04,0.21c0.06,0.17-0.04,0.28-0.09,0.41c-0.09,0.25-0.23,0.48-0.28,0.76
						c-0.04,0.2-0.13,0.39-0.29,0.54c-0.14,0.13-0.28,0.06-0.42,0.05c-0.13-0.01-0.27,0.01-0.35-0.15
						c-0.09-0.17-0.22-0.33-0.33-0.49c-0.1-0.15-0.2-0.31-0.35-0.42c-0.1-0.07-0.15-0.18-0.16-0.32c-0.03-0.25-0.12-0.47-0.36-0.61
						c-0.08-0.05-0.14-0.13-0.21-0.21c-0.07-0.08-0.28-0.25-0.37-0.31c-0.05-0.03-0.1-0.07-0.14-0.12
						c-0.25-0.33-0.55-0.63-0.71-1.02c-0.03-0.07-0.07-0.13-0.13-0.17c-0.1-0.06-0.15-0.13-0.06-0.24c0.01-0.01,0.01-0.02,0.01-0.03
						c-0.01-0.04-0.01-0.07-0.02-0.1c-0.11-0.18-0.01-0.45-0.24-0.58c-0.11-0.06-0.14-0.16-0.19-0.26
						c-0.06-0.12-0.13-0.24-0.19-0.36c-0.03-0.05-0.06-0.11-0.06-0.17c-0.01-0.15,0.01-0.3-0.13-0.4c-0.03-0.17-0.06-0.34-0.07-0.5
						c0-0.08-0.02-0.14-0.05-0.21c-0.11-0.23-0.24-0.45-0.29-0.71c-0.01-0.05-0.03-0.1-0.06-0.13c-0.24-0.25-0.27-0.57-0.32-0.88
						c-0.03-0.14-0.09-0.3-0.06-0.43c0.04-0.18,0.03-0.37,0.06-0.55c0.02-0.17,0-0.34-0.03-0.51c-0.04-0.21-0.04-0.44-0.05-0.66
						c-0.01-0.1-0.04-0.13-0.13-0.08c-0.02,0.01-0.08-0.05-0.12-0.06c-0.03-0.01-0.08-0.01-0.09,0c-0.04,0.08-0.06,0.16-0.09,0.24
						c-0.06,0.14-0.22,0.21-0.33,0.1c-0.26-0.24-0.59-0.41-0.81-0.7c-0.09-0.11-0.17-0.24-0.33-0.28c-0.04-0.01-0.1-0.07-0.09-0.1
						c0.01-0.15-0.19-0.19-0.18-0.34c0-0.03-0.06-0.09-0.1-0.1c-0.19-0.05-0.25-0.2-0.29-0.35c-0.1-0.42-0.41-0.69-0.68-0.99
						c-0.04-0.04-0.1-0.06-0.16-0.08c-0.18-0.05-0.3-0.15-0.39-0.32c-0.17-0.33-0.45-0.51-0.8-0.61c-0.12-0.03-0.2-0.08-0.25-0.2
						c-0.04-0.09-0.09-0.17-0.15-0.25c-0.05-0.07-0.09-0.14-0.11-0.23c-0.01-0.05-0.06-0.13-0.1-0.14
						c-0.12-0.03-0.15-0.12-0.18-0.21c-0.02-0.04-0.02-0.1-0.03-0.14c-0.07-0.32-0.2-0.61-0.46-0.82c-0.08-0.07-0.11-0.16-0.14-0.26
						c-0.06-0.19-0.15-0.37-0.3-0.51c-0.16-0.15-0.15-0.39-0.27-0.56c-0.04-0.06-0.07-0.13-0.07-0.21c-0.05-0.4-0.31-0.65-0.6-0.89
						c-0.15-0.12-0.3-0.25-0.46-0.36c-0.1-0.07-0.23-0.09-0.33-0.16c-0.09-0.08-0.13-0.22-0.22-0.29c-0.31-0.23-0.45-0.58-0.67-0.87
						c-0.1-0.13-0.15-0.28-0.29-0.38c-0.04-0.03-0.07-0.07-0.09-0.12c-0.14-0.28-0.34-0.51-0.57-0.72c-0.06-0.06-0.12-0.13-0.16-0.2
						c-0.26-0.47-0.59-0.9-0.89-1.34c-0.21-0.31-0.39-0.63-0.64-0.9c-0.12-0.32-0.36-0.55-0.53-0.84c-0.08-0.14-0.18-0.26-0.34-0.33
						c-0.16-0.07-0.25-0.17-0.29-0.35c-0.05-0.22-0.17-0.39-0.37-0.52c-0.4-0.27-0.61-0.7-0.86-1.09c-0.06-0.1-0.14-0.2-0.21-0.3
						c-0.1-0.15-0.22-0.3-0.29-0.47c-0.07-0.17-0.23-0.29-0.24-0.49c0-0.04-0.05-0.08-0.08-0.12c-0.27-0.27-0.47-0.6-0.68-0.91
						c-0.1-0.14-0.19-0.27-0.24-0.44C29.12,3.94,29,3.76,28.86,3.63c-0.11-0.11-0.16-0.2-0.14-0.35c0-0.04-0.03-0.09-0.07-0.12
						c-0.32-0.26-0.49-0.6-0.59-0.99c-0.01-0.05-0.01-0.11-0.04-0.14c-0.23-0.29-0.32-0.67-0.6-0.93c-0.15-0.14-0.31-0.28-0.46-0.43
						c-0.16-0.16-0.26-0.35-0.35-0.56c-0.02-0.05-0.01-0.12,0-0.18c0.07-0.37,0.1-0.75,0.17-1.13c0.02-0.1,0.06-0.2-0.02-0.28
						c-0.11-0.1-0.22-0.2-0.38-0.2c-0.16,0-0.32,0-0.48-0.01C25.6-1.7,25.32-1.8,25.09-2c-0.12-0.1-0.25-0.16-0.39-0.19
						c-0.16-0.04-0.29-0.12-0.36-0.29c-0.03-0.07-0.08-0.12-0.11-0.19c-0.04-0.09-0.09-0.19-0.08-0.28
						c0.02-0.22,0.02-0.44,0.12-0.65c0.11-0.22,0.09-0.46-0.11-0.64c-0.06-0.05-0.08-0.11-0.1-0.19c-0.05-0.15-0.12-0.3-0.18-0.44
						c-0.01-0.03-0.04-0.06-0.07-0.08c-0.32-0.18-0.58-0.45-0.92-0.6c-0.2-0.09-0.39-0.14-0.61-0.07c-0.16,0.05-0.29,0.15-0.34,0.31
						c-0.08,0.27-0.16,0.54-0.29,0.8c-0.11,0.23-0.04,0.43,0.09,0.63c0.16,0.25,0.36,0.46,0.51,0.72c0.03,0.05,0.1,0.07,0.14,0.11
						c0.13,0.14,0.32,0.16,0.46,0.29c0.13,0.12,0.32,0.17,0.5,0.22c0.28,0.09,0.47,0.32,0.71,0.46c0.12,0.19,0.24,0.37,0.34,0.56
						c0.03,0.07,0,0.17,0,0.25c-0.01,0.2-0.04,0.39,0.03,0.59c0.06,0.17,0.13,0.31,0.32,0.37c0.17,0.06,0.33,0.15,0.39,0.36
						c0.02,0.06,0.1,0.1,0.16,0.14c0.12,0.07,0.23,0.14,0.36,0.2c0.12,0.05,0.21,0.11,0.29,0.21c0.05,0.07,0.12,0.13,0.19,0.17
						c0.17,0.11,0.29,0.26,0.38,0.44c0.05,0.11,0.13,0.21,0.2,0.31c0.03,0.04,0.07,0.08,0.09,0.12c0.08,0.33,0.35,0.53,0.51,0.79
						c0.1,0.15,0.2,0.29,0.25,0.48c0.05,0.2,0.19,0.37,0.29,0.55c0.12,0.22,0.23,0.43,0.36,0.65c0.09,0.16,0.21,0.3,0.31,0.46
						c0.03,0.05,0.06,0.11,0.07,0.16c0.05,0.3,0.17,0.56,0.33,0.81c0.17,0.27,0.33,0.54,0.55,0.79c0.17,0.2,0.26,0.47,0.42,0.69
						c0.01,0.02,0.01,0.05,0.02,0.07c0.02,0.37,0.25,0.6,0.51,0.82c0.13,0.11,0.27,0.21,0.4,0.32c0.11,0.1,0.2,0.21,0.3,0.32
						c0.01,0.01,0.01,0.02,0.02,0.03c0.45,0.41,0.65,0.97,0.91,1.5c0.06,0.13,0.14,0.26,0.23,0.38c0.12,0.16,0.19,0.34,0.28,0.51
						c0.05,0.09,0.08,0.19,0.15,0.25c0.21,0.2,0.41,0.43,0.67,0.58c0.08,0.05,0.16,0.11,0.23,0.17c0.03,0.03,0.07,0.07,0.08,0.11
						c0.09,0.34,0.21,0.65,0.47,0.9c0.04,0.03,0.05,0.08,0.08,0.12c0.06,0.08,0.11,0.16,0.18,0.23c0.12,0.12,0.27,0.22,0.38,0.34
						c0.11,0.13,0.2,0.28,0.31,0.41c0.03,0.04,0.09,0.07,0.09,0.11c0.04,0.24,0.23,0.41,0.29,0.63c0.07,0.26,0.22,0.43,0.39,0.61
						c0.05,0.05,0.1,0.11,0.12,0.18c0.08,0.2,0.2,0.37,0.34,0.53c0.19,0.22,0.33,0.45,0.39,0.74c0.02,0.09,0.07,0.18,0.12,0.27
						c0.08,0.15,0.21,0.27,0.24,0.45c0.01,0.06,0.08,0.13,0.13,0.17c0.1,0.07,0.13,0.18,0.21,0.25c0.32,0.31,0.51,0.72,0.77,1.07
						c0.17,0.22,0.34,0.45,0.43,0.73c0.07,0.2,0.13,0.4,0.09,0.61c-0.02,0.13,0.02,0.25,0.1,0.34c0.1,0.11,0.14,0.26,0.19,0.39
						c0.13,0.31,0.14,0.65,0.29,0.95c0.02,0.04,0.03,0.09,0.03,0.14c0.03,0.37,0.18,0.72,0.29,1.07c0.09,0.29,0.21,0.58,0.37,0.84
						c0.15,0.24,0.27,0.5,0.42,0.74c0.11,0.18,0.23,0.35,0.36,0.51c0.08,0.11,0.17,0.22,0.16,0.36c-0.02,0.35,0.16,0.64,0.27,0.95
						c0.05,0.15,0.15,0.28,0.22,0.42c0.03,0.05,0.05,0.11,0.09,0.16c0.19,0.22,0.3,0.47,0.36,0.75c0.03,0.13,0.07,0.26,0.17,0.36
						c0.04,0.04,0.07,0.1,0.09,0.16c0.07,0.17,0.13,0.34,0.21,0.51c0.07,0.16,0.09,0.33,0.08,0.5c-0.02,0.27-0.04,0.54,0.04,0.81
						c0.05,0.16,0.05,0.34,0.05,0.51c-0.01,0.34-0.05,0.69-0.04,1.03c0.02,0.39-0.03,0.79,0.05,1.18c0.02,0.11,0.02,0.22,0,0.33
						c-0.07,0.37-0.12,0.75-0.11,1.13c0.01,0.53-0.09,1.05-0.11,1.58c0,0.08-0.04,0.17-0.07,0.25c-0.05,0.13-0.12,0.25-0.15,0.38
						c-0.03,0.15-0.18,0.21-0.2,0.34c-0.03,0.13-0.03,0.27-0.04,0.4c0,0.01-0.02,0.01-0.03,0.03c-0.08-0.01-0.07-0.09-0.07-0.14
						c-0.01-0.18-0.11-0.29-0.23-0.4c-0.19-0.16-0.37-0.33-0.55-0.5c-0.14-0.14-0.29-0.26-0.38-0.45c-0.07-0.14-0.19-0.24-0.36-0.3
						c-0.16-0.05-0.28-0.21-0.36-0.35c-0.16-0.27-0.34-0.51-0.56-0.73c-0.12-0.12-0.2-0.27-0.23-0.45c-0.02-0.13-0.1-0.25-0.17-0.37
						c-0.22-0.42-0.44-0.83-0.65-1.24c-0.11-0.22-0.24-0.43-0.44-0.58c-0.1-0.07-0.19-0.17-0.26-0.26c-0.1-0.14-0.18-0.29-0.27-0.44
						c-0.09-0.14-0.23-0.25-0.3-0.41c-0.07-0.16-0.21-0.3-0.32-0.44c-0.03-0.03-0.08-0.05-0.13-0.06c-0.07-0.03-0.13-0.07-0.15-0.15
						c-0.02-0.1-0.06-0.19-0.17-0.23c-0.03-0.01-0.04-0.08-0.05-0.12c-0.05-0.16-0.12-0.3-0.26-0.39c-0.06-0.04-0.13-0.08-0.17-0.14
						c-0.14-0.21-0.35-0.3-0.56-0.41c-0.13-0.06-0.25-0.14-0.36-0.24c-0.18-0.17-0.4-0.28-0.65-0.33c-0.24-0.05-0.48-0.12-0.7-0.23
						c-0.04-0.02-0.1-0.03-0.13-0.07c-0.21-0.19-0.41-0.38-0.62-0.58c-0.05-0.05-0.11-0.09-0.16-0.14c-0.03-0.03-0.08-0.06-0.1-0.1
						c-0.07-0.19-0.21-0.3-0.37-0.4c-0.13-0.08-0.24-0.16-0.33-0.29c-0.03-0.05-0.07-0.11-0.13-0.13c-0.19-0.09-0.29-0.25-0.41-0.4
						c-0.09-0.11-0.19-0.21-0.29-0.32c-0.09-0.09-0.12-0.24-0.19-0.36c-0.09-0.15-0.2-0.28-0.35-0.37
						c-0.04-0.02-0.09-0.05-0.13-0.08c-0.14-0.11-0.3-0.19-0.4-0.33c-0.11-0.14-0.19-0.32-0.24-0.49c-0.06-0.24-0.24-0.4-0.38-0.58
						c-0.1-0.12-0.22-0.23-0.33-0.35c-0.07-0.07-0.11-0.15-0.14-0.25c-0.06-0.21-0.2-0.28-0.42-0.26c-0.1,0.01-0.19,0.03-0.29,0.05
						C28.04,22.78,28,22.83,28,22.89c0,0.09,0,0.17,0.01,0.26c0.01,0.09,0.04,0.17,0.12,0.22c0.13,0.07,0.17,0.2,0.24,0.31
						c0.13,0.2,0.31,0.38,0.46,0.57c0.15,0.17,0.35,0.31,0.46,0.52c0.02,0.04,0.06,0.08,0.1,0.1c0.39,0.25,0.68,0.6,0.89,1.01
						c0.04,0.08,0.09,0.13,0.17,0.17c0.12,0.06,0.21,0.17,0.31,0.25c0.07,0.05,0.14,0.13,0.21,0.14c0.12,0.01,0.19,0.03,0.17,0.17
						c0,0.03,0.02,0.09,0.04,0.1c0.12,0.06,0.14,0.2,0.23,0.27c0.17,0.14,0.26,0.32,0.35,0.51c0.09,0.17,0.15,0.37,0.34,0.47
						c0.03,0.02,0.06,0.05,0.07,0.08c0.11,0.28,0.36,0.37,0.61,0.43c0.14,0.03,0.26,0.08,0.34,0.2c0.03,0.04,0.07,0.08,0.07,0.13
						c0.02,0.32,0.25,0.5,0.47,0.68c0.13,0.1,0.24,0.2,0.32,0.34c0.05,0.09,0.1,0.17,0.17,0.24c0.07,0.08,0.14,0.18,0.23,0.23
						c0.17,0.1,0.32,0.23,0.44,0.39c0.08,0.11,0.18,0.21,0.29,0.28c0.31,0.22,0.42,0.57,0.57,0.89c0.02,0.04,0.01,0.1,0.01,0.15
						c-0.01,0.21-0.12,0.4-0.18,0.59c-0.01,0.04-0.06,0.08-0.1,0.11c-0.26,0.19-0.52,0.37-0.78,0.55c-0.05,0.03-0.12,0.05-0.17,0.04
						c-0.15-0.03-0.29-0.01-0.44,0.01c-0.11,0.01-0.22,0.01-0.33,0.01c-0.34-0.01-0.69-0.06-1.03-0.04
						c-0.26,0.02-0.51-0.04-0.76,0.01c-0.06,0.01-0.13,0.01-0.18-0.01c-0.18-0.08-0.39-0.05-0.55-0.2
						c-0.16-0.02-0.31-0.06-0.39-0.23c-0.02-0.03-0.08-0.04-0.13-0.07c-0.39-0.22-0.78-0.41-1.14-0.68
						c-0.14-0.1-0.25-0.22-0.25-0.39c-0.01-0.33-0.23-0.5-0.44-0.69c-0.06-0.05-0.12-0.08-0.19-0.12c-0.18-0.11-0.33-0.24-0.43-0.44
						c-0.14-0.27-0.4-0.43-0.67-0.55c-0.16-0.08-0.43,0.01-0.57,0.16c-0.03,0.04-0.06,0.08-0.09,0.12c-0.1,0.2-0.29,0.24-0.48,0.27
						c-0.15,0.02-0.3,0.02-0.44,0c-0.13-0.01-0.26-0.09-0.39-0.08c-0.13,0-0.26,0.07-0.39,0.1c-0.06,0.01-0.12-0.01-0.15-0.08
						c0-0.01-0.01-0.02-0.01-0.03c-0.16-0.3-0.25-0.34-0.55-0.23c-0.3,0.11-0.53,0.31-0.62,0.63c-0.03,0.1-0.03,0.19,0.05,0.27
						c0.13,0.12,0.19,0.33,0.4,0.37c0.02,0,0.04,0.03,0.05,0.04c0.08,0.2,0.27,0.28,0.43,0.38c0.14,0.08,0.25,0.18,0.33,0.34
						c0.08,0.16,0.21,0.3,0.33,0.44c0.17,0.21,0.39,0.29,0.65,0.29c0.14,0,0.27-0.03,0.36,0.11c0,0.01,0.02,0.02,0.03,0.01
						c0.2-0.03,0.35,0.07,0.5,0.18c0.31,0.05,0.59,0.25,0.93,0.21c0.04,0,0.11,0.01,0.13,0.04c0.07,0.09,0.18,0.08,0.25,0.14
						c0.2,0.17,0.46,0.24,0.66,0.4c0.23,0.17,0.45,0.34,0.65,0.54c0.3,0.31,0.66,0.55,0.99,0.82c0.06,0.04,0.13,0.06,0.2,0.1
						c0.16,0.09,0.34,0.13,0.5,0.22c0.15,0.08,0.35,0.08,0.52,0.17c0.13,0.07,0.27,0.12,0.4,0.19c0.05,0.03,0.1,0.07,0.14,0.12
						c0.08,0.09,0.16,0.19,0.23,0.28c0.1,0.13,0.17,0.26,0.13,0.44c-0.02,0.12,0,0.25,0,0.37c0,0.09,0,0.17-0.02,0.25
						c-0.03,0.1-0.02,0.22-0.15,0.28c-0.15,0.07-0.29,0.14-0.46,0.08c-0.13-0.05-0.25-0.07-0.33-0.21c-0.07-0.11-0.18-0.2-0.29-0.27
						c-0.11-0.07-0.23-0.14-0.31-0.25C31.06,37.04,30.92,37,30.79,37c-0.29-0.01-0.55-0.13-0.8-0.26c-0.15-0.08-0.31-0.14-0.47-0.22
						c-0.06-0.03-0.12-0.08-0.18-0.13c-0.06-0.05-0.11-0.1-0.15-0.16c-0.06-0.09-0.2-0.06-0.22-0.18c-0.02-0.1-0.03-0.2-0.06-0.29
						c-0.04-0.12-0.09-0.23-0.14-0.34c-0.02-0.04-0.07-0.09-0.11-0.1c-0.24-0.04-0.44-0.22-0.7-0.18c-0.15,0.02-0.29,0-0.39-0.14
						c-0.05-0.06-0.14-0.09-0.22-0.13c-0.02-0.01-0.05-0.01-0.07-0.02c-0.24-0.08-0.4-0.28-0.6-0.42c-0.19-0.13-0.42-0.2-0.54-0.42
						c-0.03-0.05-0.07-0.11-0.12-0.13c-0.2-0.08-0.32-0.26-0.46-0.41c-0.16-0.18-0.36-0.29-0.6-0.31c-0.05,0-0.1-0.02-0.14-0.03
						c-0.08-0.02-0.17-0.1-0.24-0.03c-0.09,0.09-0.23,0.15-0.26,0.3c-0.06,0.25-0.01,0.49,0.1,0.71c0.02,0.05,0.09,0.08,0.14,0.1
						c0.18,0.05,0.33,0.15,0.46,0.29c0.09,0.09,0.21,0.17,0.33,0.23c0.26,0.13,0.54,0.24,0.8,0.38c0.11,0.06,0.22,0.14,0.27,0.29
						c0.04,0.13,0.13,0.24,0.2,0.35c0.03,0.04,0.06,0.08,0.11,0.1c0.15,0.08,0.31,0.16,0.47,0.21c0.31,0.08,0.56,0.26,0.79,0.46
						c0.17,0.14,0.33,0.25,0.55,0.26c0.25,0.01,0.44,0.14,0.59,0.34c0.07,0.09,0.07,0.17,0.04,0.27c-0.05,0.22-0.17,0.37-0.37,0.48
						c-0.2,0.1-0.38,0.23-0.62,0.19c-0.27,0.11-0.56-0.03-0.83,0.08c-0.05,0.02-0.12-0.02-0.18-0.03c-0.2-0.04-0.41-0.09-0.62-0.05
						c-0.09,0.02-0.2,0.02-0.29-0.01c-0.19-0.05-0.38-0.01-0.55,0.04c-0.26,0.08-0.53,0.09-0.79,0.2c-0.06,0.03-0.15,0.01-0.21-0.02
						c-0.23-0.12-0.48-0.1-0.72-0.11c-0.07,0-0.15,0.01-0.22,0.04c-0.19,0.06-0.36,0.14-0.55,0.19c-0.17,0.05-0.33,0.11-0.53,0.03
						c-0.17-0.07-0.38-0.06-0.56-0.16c-0.12-0.07-0.26-0.05-0.4-0.01c-0.23,0.07-0.42,0.21-0.62,0.33
						c-0.03,0.02-0.06,0.08-0.07,0.12c-0.04,0.29,0.12,0.58,0.39,0.69c0.27,0.11,0.57,0.16,0.86,0.18c0.04,0,0.12-0.02,0.13-0.05
						c0.07-0.21,0.28-0.2,0.43-0.23c0.13-0.03,0.26-0.06,0.39-0.08c0.06-0.01,0.13-0.03,0.18-0.01c0.15,0.05,0.29,0.07,0.43,0.01
						c0.01,0,0.02,0,0.04,0c0.11-0.02,0.19,0.14,0.31,0.07c0.08-0.05,0.15-0.13,0.26-0.1c0.03,0.01,0.07-0.01,0.1-0.03
						c0.38-0.24,0.89-0.3,1.28-0.11c0.16,0.07,0.31,0.06,0.47,0.03c0.08-0.02,0.16-0.05,0.25-0.08c0.18-0.05,0.35-0.06,0.54,0
						c0.21,0.07,0.42,0.13,0.65,0.13c0.14,0,0.28,0.07,0.43,0.09c0.31,0.03,0.61,0.08,0.92,0.06c0.21-0.01,0.4,0.04,0.55,0.15
						c0.16,0.11,0.33,0.16,0.51,0.2c0.3,0.07,0.6,0.16,0.89,0.22c0.18,0.04,0.36,0.04,0.54,0.09c0.16,0.05,0.31,0.14,0.47,0.22
						c0.23,0.11,0.46,0.23,0.69,0.34c0.11,0.27,0.34,0.32,0.6,0.35c0.04,0,0.08,0.05,0.12,0.08c0.26,0.23,0.5,0.48,0.63,0.8
						c0.18,0.44,0.2,0.88-0.08,1.31c-0.14,0.2-0.26,0.42-0.4,0.62c-0.03,0.04-0.06,0.09-0.1,0.11c-0.15,0.1-0.22,0.26-0.32,0.4
						c-0.11,0.16-0.25,0.3-0.39,0.44c-0.05,0.05-0.12,0.08-0.2,0.05c-0.12-0.04-0.23-0.07-0.35-0.1c-0.02-0.01-0.06,0-0.07,0.02
						c-0.02,0.03-0.03,0.07-0.02,0.09c0.02,0.04,0.06,0.08,0.08,0.12c0.01,0.02-0.01,0.08-0.03,0.08c-0.08,0.02-0.18,0.06-0.25,0.03
						c-0.22-0.08-0.44-0.06-0.66-0.02c-0.23,0.03-0.47,0.01-0.7,0c-0.22-0.01-0.42-0.14-0.6-0.26c-0.08-0.05-0.16-0.11-0.25-0.15
						c-0.25-0.11-0.48-0.25-0.64-0.48c-0.06-0.08-0.13-0.1-0.22-0.12c-0.14-0.03-0.28-0.08-0.39-0.2c-0.07-0.08-0.18-0.15-0.28-0.18
						c-0.41-0.11-0.69-0.41-1.02-0.64c-0.29-0.2-0.55-0.46-0.92-0.52c-0.14-0.02-0.27-0.11-0.4-0.18c-0.21-0.11-0.42-0.21-0.65-0.25
						c-0.06-0.01-0.11-0.05-0.16-0.08c-0.29-0.18-0.61-0.32-0.91-0.48c-0.08-0.04-0.15-0.09-0.24-0.06c-0.1,0.02-0.17-0.02-0.22-0.1
						c-0.13-0.27-0.4-0.3-0.64-0.37c-0.11-0.03-0.2-0.07-0.28-0.15c-0.07-0.08-0.16-0.15-0.26-0.21c-0.31-0.19-0.6-0.42-0.92-0.6
						c-0.27-0.15-0.52-0.32-0.74-0.54c-0.04-0.04-0.1-0.11-0.14-0.11c-0.2,0-0.29-0.16-0.43-0.25c-0.61-0.39-1.31-0.13-1.5,0.49
						c-0.06,0.2-0.1,0.39,0.04,0.56c0.1,0.12,0.21,0.24,0.32,0.35c0.03,0.03,0.08,0.06,0.13,0.06c0.31,0.05,0.63,0.15,0.95,0.04
						c0.05-0.02,0.13-0.03,0.18-0.01c0.28,0.12,0.6,0.15,0.86,0.33c0.04,0.03,0.1,0.04,0.12,0.08c0.09,0.18,0.27,0.19,0.43,0.25
						c0.05,0.02,0.11,0.02,0.13,0.05c0.17,0.23,0.43,0.34,0.66,0.45c0.37,0.18,0.7,0.42,1.05,0.62c0.14,0.08,0.28,0.15,0.38,0.28
						c0.03,0.04,0.11,0.08,0.16,0.08c0.26,0,0.47,0.12,0.65,0.29c0.17,0.15,0.39,0.2,0.6,0.28c0.11,0.04,0.23,0.08,0.35,0.11
						c0.21,0.05,0.37,0.16,0.52,0.32c0.17,0.18,0.34,0.34,0.5,0.53c0.06,0.07,0.07,0.15,0.09,0.22c0.07,0.2,0.03,0.36-0.09,0.52
						c-0.05,0.07-0.11,0.14-0.12,0.23c-0.05,0.2-0.16,0.36-0.27,0.52c-0.18,0.25-0.18,0.53-0.16,0.81c0.01,0.1,0.07,0.19,0.18,0.22
						c0.12,0.03,0.19,0.11,0.26,0.19c0.11,0.11,0.23,0.17,0.39,0.18c0.18,0.01,0.36,0.06,0.54,0.1c0.06,0.01,0.13,0.04,0.18,0.03
						c0.29-0.07,0.56,0.03,0.84,0.1c0.18,0.04,0.34,0.14,0.54,0.13c0.04,0,0.1,0.02,0.13,0.06c0.16,0.14,0.35,0.17,0.55,0.17
						c0.13,0,0.27,0.04,0.4,0.06c0.02,0,0.06,0,0.07,0.01c0.18,0.21,0.43,0.13,0.66,0.16c0.18,0.02,0.37,0.04,0.55,0.05
						c0.19,0.01,0.35,0.06,0.51,0.17c0.33,0.22,0.71,0.35,1.11,0.29c0.25-0.04,0.48,0.01,0.72,0.09c0.23,0.09,0.47,0.17,0.64,0.35
						c0.21,0.22,0.46,0.41,0.61,0.68c0.14,0.26,0.34,0.48,0.63,0.6c0.05,0.02,0.09,0.06,0.13,0.06c0.27,0,0.48,0.18,0.72,0.27
						c0.05,0.02,0.1,0.07,0.15,0.1c0.05,0.04,0.09,0.1,0.14,0.11c0.43,0.14,0.7,0.54,1.11,0.72c0.04,0.02,0.09,0.06,0.11,0.09
						c0.15,0.23,0.39,0.33,0.63,0.42c0.12,0.04,0.22,0.08,0.29,0.21c0.07,0.14,0.2,0.2,0.37,0.21c0.21,0.01,0.38,0.09,0.52,0.25
						c0.04,0.05,0.08,0.1,0.09,0.16c0.02,0.14,0.09,0.25,0.18,0.35c0.12,0.14,0.06,0.25-0.12,0.28c-0.22,0.03-0.45,0.02-0.65-0.07
						c-0.26-0.12-0.52-0.11-0.79-0.11c-0.54,0-1.08,0.1-1.62-0.01c-0.11-0.02-0.21-0.05-0.32-0.08c-0.32-0.09-0.66-0.17-0.98-0.11
						c-0.36,0.07-0.65-0.06-0.96-0.18c-0.14-0.05-0.25-0.16-0.42-0.11c-0.03,0.01-0.07-0.02-0.1-0.04
						c-0.23-0.13-0.48-0.12-0.72-0.04c-0.2,0.06-0.41,0.07-0.62,0.07c-0.31,0-0.62,0.03-0.92,0.1c-0.04,0.01-0.08,0.03-0.11,0.02
						c-0.2-0.06-0.39-0.02-0.59-0.01c-0.42,0.02-0.83-0.07-1.23-0.17c-0.18-0.05-0.35-0.11-0.54-0.01
						c-0.03,0.02-0.07,0.01-0.11,0.01c-0.24-0.03-0.48-0.07-0.73-0.1c-0.04-0.01-0.08,0-0.11-0.02c-0.31-0.19-0.66-0.17-1-0.21
						c-0.23-0.02-0.45-0.08-0.61-0.22c-0.25-0.21-0.54-0.24-0.83-0.27c-0.31-0.04-0.64,0-0.96,0.03c-0.25,0.02-0.35,0.25-0.21,0.46
						c0.06,0.09,0.14,0.17,0.21,0.26c0.05,0.06,0.11,0.1,0.18,0.11c0.07,0.01,0.14,0.05,0.21,0.07c0.16,0.06,0.31,0.07,0.46-0.03
						c0.1-0.07,0.18-0.05,0.26,0.05c0.05,0.06,0.1,0.1,0.16,0.16c0.06,0.06,0.09,0.13,0.1,0.23c0.01,0.12,0.09,0.23,0.1,0.34
						c0.02,0.12-0.01,0.25-0.01,0.37c0,0.06,0.02,0.13,0.04,0.18c0.11,0.21,0.22,0.41,0.33,0.62c0.04,0.07,0.08,0.12,0.17,0.13
						c0.11,0.02,0.17,0.08,0.2,0.19c0.02,0.08,0.08,0.11,0.17,0.12c0.07,0.01,0.15,0.01,0.21,0.04c0.19,0.09,0.37,0.19,0.6,0.11
						c0.01,0,0.03,0,0.04,0c0.35,0.14,0.68-0.03,1.01-0.09C29.56,55,29.68,54.98,29.8,55c0.16,0.02,0.32,0,0.48,0
						c0.07,0,0.15,0,0.22,0c0.11,0,0.22,0,0.33,0c0.07,0,0.15-0.01,0.21,0.02c0.11,0.05,0.2,0.09,0.32,0.04
						c0.02-0.01,0.05-0.01,0.07,0c0.32,0.16,0.67,0.12,1.01,0.15c0.22,0.02,0.44,0.08,0.66,0.11c0.19,0.03,0.39,0.04,0.58,0.05
						c0.08,0.01,0.17,0,0.25,0c0.23-0.01,0.41,0.08,0.53,0.27c0.11,0.18,0.27,0.2,0.45,0.15c0.11-0.03,0.21-0.02,0.33,0
						c0.18,0.03,0.37,0.05,0.55,0.06c0.24,0,0.46,0.04,0.66,0.19c0.05,0.04,0.11,0.07,0.17,0.08c0.32,0.05,0.59,0.23,0.9,0.32
						c0.29,0.09,0.59,0.17,0.88,0.26c0.13,0.04,0.25,0.1,0.36,0.18c0.21,0.14,0.43,0.24,0.68,0.26c0.22,0.01,0.41,0.09,0.57,0.23
						c0.2,0.17,0.44,0.15,0.66,0.11c0.24-0.05,0.47-0.01,0.7-0.01c0.07,0,0.13,0.06,0.19,0.09c0.08,0.04,0.14,0.1,0.22,0.13
						c0.08,0.03,0.19,0,0.18,0.13c0,0.13-0.06,0.24-0.19,0.29c-0.06,0.02-0.12,0.04-0.18,0.04c-0.29,0.02-0.51,0.18-0.71,0.36
						c-0.11,0.1-0.21,0.17-0.35,0.16c-0.22-0.02-0.38,0.07-0.51,0.24c-0.03,0.05-0.09,0.09-0.14,0.1c-0.17,0.04-0.31,0.15-0.49,0.15
						c-0.07,0-0.15,0.08-0.22,0.12c-0.06,0.04-0.12,0.13-0.18,0.12c-0.31-0.02-0.51,0.22-0.78,0.29c-0.02,0.01-0.05,0.02-0.07,0.03
						c-0.07,0.03-0.14,0.02-0.21-0.01c-0.1-0.04-0.21-0.08-0.31-0.1c-0.26-0.03-0.48,0.17-0.51,0.43c-0.02,0.19,0.06,0.3,0.25,0.34
						c0.17,0.04,0.24,0.01,0.3-0.17c0.02-0.05,0.03-0.09,0.05-0.14c0.04-0.09,0.21-0.16,0.31-0.12c0.01,0,0.01,0.05,0,0.06
						c-0.03,0.03-0.07,0.06-0.11,0.09c-0.04,0.03-0.11,0.03-0.08,0.1c0.02,0.04,0.08,0.07,0.12,0.07c0.21-0.01,0.41-0.07,0.55-0.25
						c0.05-0.07,0.1-0.1,0.18-0.11c0.15-0.02,0.29-0.04,0.44-0.07c0.06-0.01,0.13-0.02,0.17-0.06c0.15-0.15,0.32-0.11,0.48-0.04
						c0.12,0.05,0.23,0.04,0.36,0.01c0.31-0.07,0.62-0.14,0.94-0.16c0.06,0,0.12-0.03,0.17-0.06c0.14-0.1,0.27-0.1,0.42-0.03
						c0.04,0.02,0.1,0.05,0.14,0.04c0.28-0.11,0.52,0.11,0.78,0.1c0.14,0.09,0.28,0.06,0.42-0.01c0.07-0.04,0.12-0.01,0.15,0.05
						c0.07,0.12,0.17,0.23,0.2,0.35c0.04,0.17,0.08,0.36-0.08,0.51c-0.16,0.16-0.32,0.3-0.57,0.31c-0.17,0.01-0.3,0.1-0.44,0.17
						c-0.04,0.02-0.08,0.06-0.11,0.1c-0.06,0.09-0.08,0.22-0.16,0.27c-0.06,0.04-0.19-0.02-0.28-0.02c-0.18,0-0.34,0.08-0.46,0.21
						c-0.12,0.12-0.25,0.19-0.4,0.26c-0.33,0.17-0.66,0.33-0.92,0.6c-0.03,0.03-0.07,0.08-0.12,0.09c-0.29,0.09-0.49,0.32-0.74,0.47
						c-0.25,0.14-0.47,0.31-0.69,0.5c-0.11,0.09-0.26,0.15-0.39,0.2c-0.25,0.09-0.52,0.16-0.77,0.26c-0.27,0.1-0.32,0.17-0.32,0.47
						c0,0.05,0,0.1,0,0.15c-0.01,0.2,0.04,0.31,0.21,0.37c0.07,0.03,0.14,0.04,0.21,0.06c0.11,0.04,0.2,0,0.27-0.08
						c0.04-0.05,0.07-0.11,0.11-0.15c0.12-0.12,0.23-0.24,0.43-0.25c0.15-0.01,0.16-0.05,0.19-0.22c0.04-0.22,0.07-0.25,0.3-0.29
						c0.36-0.05,0.73-0.11,1.1-0.15c0.14-0.02,0.23-0.07,0.31-0.18c0.06-0.09,0.12-0.19,0.19-0.28c0.05-0.07,0.1-0.15,0.17-0.19
						c0.17-0.09,0.25-0.23,0.31-0.4c0.03-0.08,0.07-0.12,0.14-0.15c0.2-0.1,0.41-0.14,0.64-0.17c0.51-0.06,1.03-0.06,1.52-0.24
						C43.14,62.2,43.26,62.22,43.38,62.33z M28.71,23.47l0-0.03l0.01,0L28.71,23.47z M24.99,33.36c-0.01,0.01-0.02,0.01-0.03,0.02
						c0-0.01-0.01-0.02-0.01-0.02c0.01-0.01,0.03-0.02,0.04-0.02C24.99,33.34,24.99,33.35,24.99,33.36z M26.01,51.96l0.01-0.03
						l0.02,0.01L26.01,51.96z M38.57,59.75l-0.02-0.02l0.03,0L38.57,59.75z"/>
				</g>
			</g>
		</g>
	</g>
</g>
</svg>
