<?xml version="1.0" encoding="utf-8"?>
<!-- Generator: Adobe Illustrator 24.3.0, SVG Export Plug-In . SVG Version: 6.00 Build 0)  -->
<svg version="1.1" id="Calque_1" xmlns="http://www.w3.org/2000/svg" xmlns:xlink="http://www.w3.org/1999/xlink" x="0px" y="0px"
	 viewBox="0 0 90.71 90.71" style="enable-background:new 0 0 90.71 90.71;" xml:space="preserve">
<style type="text/css">
	.st0{fill:#FFFFFF;}
	.st1{fill:url(#SVGID_1_);}
</style>
<g>
	<circle class="st0" cx="45.35" cy="45.35" r="44.45"/>
	<linearGradient id="SVGID_1_" gradientUnits="userSpaceOnUse" x1="-38.0406" y1="-43.3622" x2="63.0661" y2="84.6696">
		<stop  offset="0.1927" style="stop-color:#E6007D"/>
		<stop  offset="1" style="stop-color:#5C2582"/>
	</linearGradient>
	<path class="st1" d="M59.15,47.07c-1.96-1.72-4.79-6.15-5.21-8.67c2.1-0.63,2.32-1.77,2.32-1.77c-0.47,0.46-1.36,0.73-2.35,0.88
		c0.3-2.17,3.59-3.68,2.66-7.31c-0.08-1.55-1.73-4.37-3.57-10.22c-1.92-6.1-6.82-12.37-11.29-14.98c-1.69-0.87-4.1-1.85-7.12-2.76
		C15.25,7.04,0.91,24.52,0.91,45.35c0,17.27,9.86,32.23,24.25,39.59c0.59-0.78,1.21-1.56,1.9-2.32c6.79-2.1,6.89,1.24,16.89,1.78
		c10.01,0.54,8.63-6.83,8.25-8.21c-0.38-1.38-1.45-4.33,1.73-4.91c3.17-0.58,3.29-3.08,2.37-4.24c-0.93-1.16-1.09-1.76-1.09-1.76
		s5.02-2.86,2.74-4.88c-1.24-0.63-2.03-2.55-2.24-3.75c-0.21-1.2,1.34-1.04,4.6-2.99C63.57,51.71,61.25,48.91,59.15,47.07z"/>
</g>
</svg>
