<?xml version="1.0" encoding="utf-8"?>
<!-- Generator: Adobe Illustrator 24.3.0, SVG Export Plug-In . SVG Version: 6.00 Build 0)  -->
<svg version="1.1" id="Calque_1" xmlns="http://www.w3.org/2000/svg" xmlns:xlink="http://www.w3.org/1999/xlink" x="0px" y="0px"
	 viewBox="0 0 418.08 458.62" style="enable-background:new 0 0 418.08 458.62;" xml:space="preserve">
<style type="text/css">
	.st0{fill:url(#SVGID_1_);}
	.st1{fill:#FFFFFF;}
	.st2{fill:url(#SVGID_2_);}
	.st3{fill:url(#SVGID_3_);}
</style>
<g>
	<g>
		<g>
			<linearGradient id="SVGID_1_" gradientUnits="userSpaceOnUse" x1="65.4111" y1="348.4028" x2="165.6779" y2="475.3711">
				<stop  offset="0.1927" style="stop-color:#E6007D"/>
				<stop  offset="1" style="stop-color:#5C2582"/>
			</linearGradient>
			<path class="st0" d="M152.48,416.45c-0.03,0.05-0.06,0.1-0.08,0.14c-0.91,1.71-2.22,3-3.74,4.1c-1.1,0.79-2.04,1.68-2.88,2.74
				c-1.03,1.3-2.22,2.48-3.34,3.71c-0.22,0.25-0.56,0.45-0.66,0.74c-0.49,1.34-1.6,2.09-2.65,2.92c-0.52,0.41-0.98,0.9-1.42,1.4
				c-0.97,1.11-1.9,2.25-2.85,3.37c-0.3,0.36-0.65,0.67-0.96,1.02c-0.67,0.75-1.83,0.8-2.4,1.73c-0.48,0.79-1.1,1.5-1.68,2.23
				c-0.42,0.53-0.88,1-1.65,0.99c-0.25-0.01-0.57,0.09-0.74,0.26c-1.18,1.16-2.4,2.26-3.21,3.79c-0.77,1.46-1.82,2.76-3.3,3.64
				c-0.5,0.3-0.97,0.71-1.34,1.17c-0.49,0.62-0.89,1.27-1.54,1.8c-0.51,0.41-0.62,1.29-0.96,1.94c-0.52,1.01-0.44,2.07-0.35,3.14
				c0.04,0.49,0.25,0.9,0.69,1.15c0.37,0.21,0.71,0.31,1.09-0.03c0.59-0.54,1.28-0.98,1.81-1.57c1.12-1.25,2.03-2.65,2.15-4.38
				c0.07-0.97,0.43-1.8,0.94-2.6c1.81-2.85,4.1-5.27,6.62-7.49c0.4-0.35,0.72-0.79,1.09-1.17c1.49-1.53,2.92-3.13,4.79-4.24
				c0.4-0.23,0.73-0.58,1.07-0.9c1.67-1.55,3.21-3.21,4.7-4.93c0.78-0.9,1.53-1.86,2.62-2.46c0.34-0.19,0.61-0.52,0.88-0.81
				c2.16-2.28,4.25-4.61,6.23-7.04c0.29-0.36,0.48-0.8,0.75-1.18c0.35-0.49,0.66-1.02,1.1-1.41c0.46-0.41,0.88-0.86,1.27-1.31
				L152.48,416.45z"/>
		</g>
		<g>
			<g>
				<g>
					<path class="st1" d="M204.39,198.26l-2.97,13.24c12.77,1.39,26.56,5.26,40.75,12.55c9.28,5.42,19.45,18.44,23.44,31.1
						c3.82,12.14,7.25,18,7.42,21.22c1.93,7.54-4.9,10.67-5.53,15.18c2.06-0.31,3.9-0.86,4.88-1.83c0,0-0.46,2.37-4.82,3.68
						c0.88,5.24,6.75,14.44,10.82,18c4.37,3.82,9.18,9.63,2.4,13.67c-6.78,4.05-9.99,3.72-9.56,6.21c0.44,2.49,2.07,6.49,4.64,7.79
						c4.73,4.2-5.69,10.14-5.69,10.14s0.34,1.25,2.26,3.64c1.92,2.4,1.68,7.59-4.91,8.8c-6.59,1.2-4.38,7.32-3.59,10.19
						c0.8,2.87,3.65,18.16-17.12,17.05c-20.77-1.11-20.98-8.05-35.07-3.69c-4.04,4.45-7.27,9.16-9.71,14.01l151.2,33.89
						l43.01-191.84L204.39,198.26z"/>
					<path class="st1" d="M144.65,176.04c0.33,0.83,0.74,1.61,1.13,2.41c0.18,0.37,0.25,0.71,0.27,1.12
						c0.04,0.92,0.25,1.83,0.38,2.74c0.78,0.55,0.67,1.38,0.72,2.18c0.02,0.31,0.19,0.63,0.34,0.92c0.33,0.65,0.69,1.29,1.02,1.94
						c0.27,0.54,0.47,1.11,1.04,1.43c1.27,0.71,0.7,2.17,1.3,3.17c0.09,0.16,0.1,0.37,0.13,0.56c0.01,0.06-0.01,0.14-0.05,0.19
						c-0.5,0.58-0.21,0.96,0.31,1.29c0.35,0.22,0.56,0.51,0.72,0.91c0.87,2.13,2.48,3.76,3.86,5.54c0.2,0.25,0.47,0.47,0.75,0.64
						c0.49,0.28,1.66,1.25,2.01,1.66c0.35,0.4,0.68,0.87,1.12,1.12c1.31,0.74,1.77,1.96,1.94,3.31c0.09,0.73,0.35,1.33,0.89,1.72
						c0.85,0.61,1.35,1.46,1.92,2.29c0.61,0.88,1.29,1.72,1.8,2.66c0.46,0.84,1.21,0.76,1.9,0.8c0.75,0.05,1.52,0.39,2.27-0.29
						c0.9-0.82,1.38-1.86,1.58-2.95c0.26-1.48,1.03-2.73,1.53-4.1c0.27-0.74,0.83-1.33,0.48-2.23c-0.12-0.31,0.11-0.78,0.24-1.15
						c0.11-0.31,0.35-0.43,0.64-0.48l6.14-27.41H144.65z"/>
					<polygon class="st1" points="418.08,217.83 418.08,176.04 231.66,176.04 					"/>
					<polygon class="st1" points="376.76,454.57 418.08,454.57 418.08,270.26 					"/>
					<g>
						<path class="st1" d="M151.71,430.64l-3.84,1.81v-5.57l3.76-2.12h5.24v29.81h5.61l4.35-11.99c-0.32,0.09-0.65,0.14-0.98,0.14
							c-1.25,0-2.31-0.26-3.19-0.78c-0.88-0.52-1.55-1.28-2.02-2.28c-0.46-1-0.7-2.2-0.7-3.59v-4.45c0-1.5,0.28-2.78,0.83-3.85
							c0.55-1.07,1.35-1.89,2.4-2.45c1.05-0.56,2.3-0.84,3.77-0.84c1.47,0,2.73,0.28,3.77,0.83c1.05,0.55,1.84,1.36,2.39,2.43
							c0.55,1.07,0.82,2.35,0.82,3.84v3.97c0,1.28-0.13,2.41-0.37,3.41c-0.25,1-0.65,2.2-1.18,3.62c-0.04,0.14-0.09,0.27-0.14,0.41
							c-0.05,0.13-0.1,0.27-0.15,0.41l-4.11,11.19h10.95l4.35-11.99c-0.32,0.09-0.65,0.14-0.98,0.14c-1.25,0-2.31-0.26-3.19-0.78
							c-0.88-0.52-1.55-1.28-2.02-2.28c-0.46-1-0.7-2.2-0.7-3.59v-4.45c0-1.5,0.28-2.78,0.83-3.85c0.55-1.07,1.35-1.89,2.4-2.45
							c1.05-0.56,2.3-0.84,3.77-0.84c1.47,0,2.73,0.28,3.77,0.83c1.05,0.55,1.84,1.36,2.39,2.43c0.55,1.07,0.82,2.35,0.82,3.84v3.97
							c0,1.28-0.13,2.41-0.37,3.41c-0.25,1-0.65,2.2-1.18,3.62c-0.04,0.14-0.09,0.27-0.14,0.41c-0.05,0.13-0.1,0.27-0.15,0.41
							l-4.11,11.19h11.55l5.19-25.24h-3.62v3.51h-4.92v-7.4l-53.06-11.89v41.02h12.17V430.64z"/>
						<polygon class="st1" points="322.51,454.57 206.37,428.53 206.37,428.57 201.03,454.57 						"/>
						<path class="st1" d="M185.31,431.45c0-0.68-0.17-1.18-0.5-1.52c-0.33-0.33-0.81-0.5-1.43-0.5c-0.62,0-1.1,0.17-1.44,0.5
							c-0.34,0.33-0.51,0.84-0.51,1.52v4.28c0,0.64,0.17,1.14,0.52,1.5c0.35,0.36,0.82,0.54,1.43,0.54c0.61,0,1.08-0.18,1.42-0.54
							c0.34-0.36,0.51-0.87,0.51-1.52V431.45z"/>
						<path class="st1" d="M168.87,431.45c0-0.68-0.17-1.18-0.5-1.52c-0.33-0.33-0.81-0.5-1.43-0.5c-0.62,0-1.1,0.17-1.44,0.5
							c-0.34,0.33-0.51,0.84-0.51,1.52v4.28c0,0.64,0.17,1.14,0.52,1.5c0.35,0.36,0.82,0.54,1.43,0.54s1.08-0.18,1.42-0.54
							c0.34-0.36,0.51-0.87,0.51-1.52V431.45z"/>
					</g>
				</g>
			</g>
		</g>
		<g>
			<g>
				<linearGradient id="SVGID_2_" gradientUnits="userSpaceOnUse" x1="-34.6494" y1="75.2457" x2="288.4988" y2="484.4496">
					<stop  offset="0.1927" style="stop-color:#E6007D"/>
					<stop  offset="1" style="stop-color:#5C2582"/>
				</linearGradient>
				<path class="st2" d="M133.53,368.48c0.54,0.5,0.68,0.41,1.35-0.12c1.45-1.14,1.6-1.1,2.35,0.62c0.21,0.48,0.42,0.96,0.63,1.44
					l36.88-164.49c-0.01-0.12-0.01-0.24,0.01-0.35c0.01-0.04,0.05-0.07,0.09-0.1l0.45-2.03c-0.03-0.01-0.04-0.03-0.08-0.03
					c-0.45-0.07-0.82,0.09-0.97,0.52c-0.13,0.37-0.36,0.84-0.24,1.15c0.34,0.9-0.21,1.5-0.48,2.23c-0.5,1.37-1.27,2.62-1.53,4.1
					c-0.2,1.09-0.68,2.13-1.58,2.95c-0.75,0.69-1.52,0.34-2.27,0.29c-0.69-0.04-1.44,0.03-1.9-0.8c-0.51-0.93-1.19-1.78-1.8-2.66
					c-0.57-0.82-1.07-1.68-1.92-2.29c-0.54-0.39-0.8-0.99-0.89-1.72c-0.16-1.35-0.63-2.57-1.94-3.31c-0.44-0.25-0.78-0.72-1.12-1.12
					c-0.36-0.42-1.53-1.38-2.01-1.66c-0.28-0.16-0.55-0.38-0.75-0.64c-1.38-1.78-2.99-3.41-3.86-5.54c-0.16-0.4-0.38-0.69-0.72-0.91
					c-0.52-0.33-0.8-0.71-0.31-1.29c0.04-0.05,0.06-0.13,0.05-0.19c-0.03-0.19-0.04-0.4-0.13-0.56c-0.59-0.99-0.03-2.46-1.3-3.17
					c-0.57-0.32-0.77-0.89-1.04-1.43c-0.32-0.66-0.69-1.29-1.02-1.94c-0.15-0.29-0.32-0.61-0.34-0.92c-0.05-0.8,0.06-1.63-0.72-2.18
					c-0.14-0.91-0.34-1.82-0.38-2.74c-0.02-0.42-0.09-0.76-0.27-1.12c-0.61-1.25-1.32-2.46-1.57-3.86
					c-0.05-0.25-0.17-0.54-0.35-0.72c-1.32-1.33-1.46-3.08-1.76-4.78c-0.14-0.78-0.49-1.62-0.33-2.34c0.22-0.99,0.19-1.98,0.32-2.97
					c0.13-0.93,0.01-1.83-0.18-2.76c-0.23-1.16-0.22-2.37-0.29-3.57c-0.03-0.54-0.2-0.7-0.73-0.44c-0.13,0.06-0.41-0.25-0.65-0.33
					c-0.15-0.05-0.45-0.04-0.48,0.03c-0.19,0.42-0.31,0.87-0.48,1.3c-0.31,0.78-1.2,1.12-1.78,0.57c-1.4-1.33-3.17-2.22-4.38-3.79
					c-0.47-0.61-0.93-1.32-1.8-1.52c-0.21-0.05-0.52-0.35-0.51-0.53c0.04-0.83-1.01-1.04-0.99-1.86c0-0.18-0.31-0.48-0.53-0.54
					c-1.02-0.25-1.35-1.07-1.55-1.91c-0.53-2.28-2.23-3.75-3.67-5.39c-0.2-0.23-0.57-0.33-0.88-0.42c-0.96-0.27-1.63-0.83-2.09-1.73
					c-0.9-1.77-2.44-2.78-4.31-3.3c-0.64-0.18-1.07-0.45-1.34-1.06c-0.21-0.48-0.49-0.94-0.8-1.37c-0.28-0.38-0.51-0.75-0.59-1.24
					c-0.04-0.28-0.31-0.7-0.54-0.74c-0.67-0.14-0.8-0.65-1-1.13c-0.1-0.24-0.1-0.52-0.16-0.78c-0.38-1.73-1.11-3.29-2.47-4.47
					c-0.44-0.38-0.58-0.88-0.74-1.39c-0.33-1.03-0.8-1.99-1.61-2.74c-0.88-0.82-0.83-2.09-1.48-3.03c-0.22-0.31-0.36-0.73-0.41-1.11
					c-0.26-2.18-1.7-3.53-3.26-4.81c-0.82-0.68-1.63-1.38-2.51-1.98c-0.54-0.37-1.27-0.46-1.77-0.87c-0.5-0.41-0.71-1.19-1.22-1.57
					c-1.68-1.23-2.45-3.13-3.65-4.71c-0.52-0.68-0.83-1.53-1.58-2.04c-0.21-0.14-0.36-0.39-0.48-0.63
					c-0.75-1.51-1.82-2.77-3.08-3.88c-0.35-0.3-0.65-0.69-0.88-1.09c-1.43-2.55-3.22-4.86-4.85-7.27c-1.12-1.66-2.12-3.39-3.46-4.89
					c-0.65-1.71-1.97-3.01-2.88-4.56c-0.45-0.78-0.99-1.42-1.84-1.77c-0.84-0.35-1.36-0.91-1.57-1.89
					c-0.26-1.17-0.92-2.11-2.03-2.84c-2.17-1.44-3.31-3.78-4.64-5.93c-0.35-0.56-0.75-1.09-1.11-1.65
					c-0.55-0.84-1.22-1.63-1.58-2.54c-0.37-0.92-1.24-1.6-1.29-2.68c-0.01-0.22-0.27-0.45-0.45-0.64c-1.46-1.47-2.53-3.24-3.69-4.93
					c-0.52-0.75-1.02-1.46-1.31-2.39c-0.31-0.97-0.98-1.93-1.74-2.63c-0.62-0.58-0.86-1.08-0.78-1.87c0.02-0.2-0.18-0.5-0.36-0.64
					c-1.73-1.39-2.63-3.27-3.19-5.35c-0.07-0.26-0.04-0.58-0.19-0.76c-1.26-1.56-1.73-3.63-3.25-5.02
					c-0.83-0.76-1.66-1.54-2.48-2.32c-0.89-0.84-1.43-1.92-1.92-3.01c-0.12-0.27-0.07-0.65-0.01-0.97c0.39-2.02,0.54-4.08,0.91-6.11
					c0.1-0.53,0.31-1.11-0.12-1.52c-0.57-0.55-1.19-1.09-2.07-1.1c-0.86-0.01-1.73,0.02-2.59-0.06c-1.62-0.15-3.1-0.73-4.35-1.78
					c-0.64-0.53-1.34-0.85-2.14-1.03c-0.89-0.21-1.59-0.66-1.95-1.56c-0.15-0.37-0.45-0.67-0.6-1.04c-0.2-0.49-0.47-1.02-0.42-1.51
					c0.12-1.18,0.12-2.37,0.65-3.51c0.57-1.22,0.49-2.48-0.58-3.49c-0.3-0.29-0.43-0.62-0.55-1.02c-0.25-0.82-0.64-1.6-1-2.39
					c-0.08-0.17-0.23-0.35-0.39-0.44c-1.73-0.98-3.12-2.45-4.96-3.28c-1.09-0.49-2.13-0.74-3.28-0.36
					c-0.87,0.29-1.59,0.82-1.85,1.69c-0.45,1.47-0.87,2.94-1.56,4.32c-0.61,1.22-0.19,2.35,0.48,3.41c0.85,1.34,1.93,2.52,2.75,3.89
					c0.16,0.26,0.56,0.37,0.78,0.61c0.69,0.74,1.74,0.85,2.5,1.56c0.69,0.64,1.76,0.91,2.71,1.22c1.52,0.49,2.53,1.71,3.86,2.47
					c0.63,1.01,1.32,2,1.86,3.06c0.19,0.36,0,0.91-0.01,1.37c-0.03,1.06-0.22,2.12,0.15,3.18c0.32,0.93,0.72,1.66,1.76,1.99
					c0.95,0.31,1.81,0.81,2.13,1.94c0.09,0.32,0.55,0.56,0.88,0.77c0.63,0.39,1.26,0.77,1.94,1.06c0.63,0.27,1.16,0.59,1.57,1.16
					c0.26,0.37,0.64,0.68,1.02,0.93c0.92,0.6,1.59,1.38,2.07,2.37c0.29,0.59,0.7,1.13,1.07,1.68c0.15,0.22,0.41,0.41,0.46,0.65
					c0.42,1.78,1.89,2.86,2.79,4.31c0.52,0.84,1.1,1.6,1.37,2.62c0.28,1.06,1.04,2,1.58,2.99c0.64,1.17,1.25,2.36,1.93,3.5
					c0.51,0.86,1.12,1.65,1.66,2.49c0.17,0.27,0.33,0.58,0.37,0.89c0.25,1.62,0.9,3.04,1.8,4.41c0.95,1.45,1.81,2.92,2.96,4.26
					c0.93,1.08,1.42,2.53,2.26,3.73c0.07,0.1,0.08,0.26,0.08,0.39c0.08,2.01,1.38,3.25,2.78,4.43c0.71,0.6,1.49,1.13,2.18,1.76
					c0.59,0.53,1.09,1.16,1.63,1.75c0.05,0.05,0.07,0.11,0.12,0.16c2.46,2.22,3.54,5.27,4.93,8.13c0.35,0.72,0.75,1.39,1.24,2.04
					c0.62,0.85,1.03,1.85,1.54,2.79c0.25,0.46,0.43,1.02,0.79,1.36c1.16,1.1,2.2,2.33,3.63,3.12c0.46,0.25,0.87,0.6,1.27,0.94
					c0.18,0.15,0.35,0.38,0.42,0.6c0.49,1.82,1.15,3.54,2.57,4.87c0.19,0.18,0.3,0.44,0.46,0.65c0.32,0.42,0.61,0.89,0.98,1.25
					c0.66,0.64,1.45,1.17,2.07,1.86c0.62,0.68,1.1,1.49,1.65,2.24c0.16,0.21,0.48,0.37,0.51,0.59c0.22,1.3,1.26,2.24,1.58,3.42
					c0.37,1.39,1.21,2.32,2.11,3.29c0.26,0.28,0.53,0.6,0.67,0.96c0.41,1.09,1.1,1.99,1.84,2.85c1.02,1.18,1.81,2.45,2.13,4
					c0.11,0.51,0.38,0.99,0.64,1.46c0.44,0.8,1.13,1.46,1.31,2.43c0.06,0.35,0.41,0.71,0.72,0.93c0.52,0.36,0.73,0.96,1.14,1.37
					c1.75,1.7,2.74,3.92,4.2,5.81c0.94,1.21,1.83,2.46,2.34,3.95c0.37,1.09,0.69,2.17,0.51,3.33c-0.11,0.72,0.09,1.34,0.55,1.86
					c0.55,0.62,0.74,1.39,1.05,2.13c0.72,1.66,0.74,3.52,1.58,5.14c0.12,0.23,0.16,0.51,0.18,0.78c0.17,2.02,0.95,3.9,1.56,5.79
					c0.5,1.56,1.12,3.12,2.03,4.54c0.83,1.29,1.47,2.69,2.27,4c0.59,0.97,1.27,1.88,1.96,2.78c0.46,0.6,0.94,1.2,0.89,1.97
					c-0.1,1.89,0.85,3.46,1.46,5.14c0.29,0.81,0.79,1.54,1.2,2.3c0.16,0.29,0.28,0.62,0.49,0.86c1.03,1.19,1.63,2.57,1.97,4.08
					c0.16,0.73,0.36,1.41,0.92,1.97c0.23,0.22,0.36,0.55,0.49,0.85c0.39,0.92,0.73,1.87,1.14,2.78c0.39,0.88,0.48,1.77,0.43,2.73
					c-0.09,1.45-0.2,2.91,0.23,4.37c0.26,0.88,0.26,1.86,0.24,2.79c-0.03,1.87-0.29,3.74-0.2,5.59c0.1,2.12-0.15,4.26,0.25,6.38
					c0.11,0.58,0.09,1.21-0.01,1.79c-0.37,2.03-0.63,4.06-0.59,6.14c0.05,2.87-0.47,5.7-0.62,8.56c-0.02,0.45-0.23,0.9-0.4,1.34
					c-0.26,0.68-0.67,1.33-0.8,2.04c-0.14,0.81-0.96,1.14-1.1,1.86c-0.14,0.71-0.16,1.44-0.23,2.16c0,0.04-0.09,0.08-0.17,0.14
					c-0.43-0.07-0.37-0.49-0.39-0.74c-0.06-0.95-0.58-1.59-1.25-2.19c-1-0.88-2.01-1.76-2.96-2.69c-0.75-0.74-1.55-1.43-2.05-2.42
					c-0.38-0.75-1.04-1.3-1.95-1.61c-0.87-0.29-1.5-1.11-1.96-1.89c-0.85-1.45-1.83-2.77-3.01-3.98c-0.64-0.65-1.1-1.45-1.27-2.43
					c-0.12-0.7-0.56-1.35-0.9-2c-1.17-2.25-2.36-4.49-3.53-6.74c-0.62-1.19-1.3-2.32-2.39-3.17c-0.52-0.41-1-0.9-1.4-1.43
					c-0.55-0.75-0.97-1.58-1.49-2.36c-0.51-0.76-1.22-1.35-1.62-2.24c-0.4-0.89-1.13-1.64-1.76-2.41c-0.15-0.18-0.46-0.25-0.7-0.35
					c-0.39-0.15-0.68-0.36-0.79-0.82c-0.13-0.52-0.32-1.01-0.9-1.25c-0.15-0.06-0.2-0.42-0.26-0.65c-0.25-0.86-0.65-1.6-1.44-2.1
					c-0.34-0.21-0.72-0.43-0.93-0.75c-0.73-1.14-1.91-1.65-3.04-2.2c-0.72-0.35-1.34-0.75-1.94-1.31c-0.96-0.9-2.17-1.54-3.51-1.8
					c-1.31-0.26-2.58-0.64-3.77-1.26c-0.23-0.12-0.52-0.18-0.71-0.35c-1.13-1.03-2.24-2.08-3.35-3.12
					c-0.29-0.27-0.59-0.51-0.88-0.78c-0.19-0.17-0.44-0.33-0.52-0.55c-0.37-1.01-1.16-1.62-2.01-2.16
					c-0.69-0.43-1.32-0.89-1.77-1.59c-0.18-0.28-0.41-0.59-0.69-0.72c-1.02-0.47-1.58-1.37-2.23-2.18
					c-0.49-0.61-1.04-1.15-1.57-1.71c-0.48-0.51-0.65-1.3-1.02-1.93c-0.48-0.81-1.07-1.54-1.91-2.02c-0.23-0.13-0.47-0.26-0.68-0.42
					c-0.74-0.57-1.61-1.05-2.16-1.77c-0.59-0.77-1.04-1.72-1.28-2.67c-0.34-1.32-1.28-2.16-2.07-3.12c-0.55-0.66-1.2-1.24-1.79-1.87
					c-0.36-0.39-0.62-0.81-0.78-1.36c-0.33-1.13-1.1-1.54-2.29-1.41c-0.52,0.06-1.04,0.18-1.56,0.28c-0.37,0.07-0.6,0.31-0.61,0.69
					c-0.01,0.47,0.01,0.94,0.04,1.4c0.03,0.49,0.21,0.93,0.65,1.18c0.69,0.39,0.91,1.08,1.31,1.69c0.72,1.11,1.65,2.08,2.52,3.09
					c0.81,0.95,1.89,1.66,2.5,2.8c0.12,0.22,0.34,0.42,0.56,0.56c2.13,1.37,3.71,3.23,4.82,5.49c0.22,0.45,0.49,0.69,0.94,0.92
					c0.63,0.33,1.13,0.91,1.71,1.36c0.36,0.28,0.74,0.7,1.14,0.75c0.64,0.07,1.02,0.17,0.93,0.92c-0.02,0.17,0.08,0.46,0.22,0.53
					c0.63,0.33,0.78,1.07,1.26,1.45c0.94,0.75,1.4,1.72,1.91,2.75c0.46,0.93,0.81,2.01,1.87,2.54c0.16,0.08,0.32,0.27,0.39,0.44
					c0.6,1.5,1.93,1.99,3.31,2.32c0.76,0.18,1.4,0.44,1.83,1.09c0.14,0.22,0.36,0.44,0.37,0.68c0.13,1.73,1.38,2.72,2.54,3.67
					c0.68,0.56,1.32,1.09,1.75,1.86c0.26,0.46,0.57,0.91,0.91,1.32c0.38,0.46,0.75,0.97,1.25,1.26c0.94,0.56,1.71,1.26,2.38,2.11
					c0.45,0.57,0.97,1.13,1.56,1.54c1.71,1.19,2.28,3.08,3.07,4.83c0.1,0.23,0.07,0.53,0.05,0.79c-0.06,1.15-0.63,2.16-1,3.22
					c-0.08,0.23-0.31,0.44-0.52,0.59c-1.4,1.02-2.8,2.03-4.23,3c-0.25,0.17-0.65,0.26-0.93,0.19c-0.81-0.18-1.59-0.04-2.39,0.06
					c-0.59,0.07-1.2,0.07-1.8,0.05c-1.87-0.07-3.74-0.32-5.6-0.2c-1.38,0.08-2.76-0.22-4.14,0.06c-0.31,0.06-0.69,0.06-0.96-0.07
					c-0.96-0.46-2.14-0.28-2.96-1.09c-0.89-0.09-1.66-0.35-2.1-1.24c-0.09-0.19-0.46-0.23-0.69-0.35c-2.09-1.17-4.23-2.25-6.18-3.69
					c-0.76-0.56-1.34-1.21-1.36-2.09c-0.04-1.78-1.22-2.73-2.4-3.72c-0.3-0.26-0.67-0.44-1.02-0.64c-1-0.58-1.79-1.3-2.33-2.39
					c-0.74-1.49-2.17-2.31-3.63-3.01c-0.88-0.42-2.35,0.03-3.09,0.86c-0.18,0.2-0.35,0.42-0.47,0.65c-0.55,1.08-1.58,1.32-2.62,1.45
					c-0.79,0.1-1.61,0.09-2.4,0.01c-0.71-0.08-1.41-0.46-2.1-0.45c-0.7,0.02-1.39,0.38-2.1,0.54c-0.34,0.08-0.66-0.04-0.8-0.43
					c-0.02-0.06-0.04-0.13-0.08-0.19c-0.88-1.62-1.34-1.86-3-1.23c-1.63,0.61-2.87,1.7-3.38,3.44c-0.16,0.53-0.17,1.05,0.28,1.49
					c0.7,0.68,1.02,1.76,2.14,2c0.11,0.02,0.24,0.14,0.28,0.24c0.46,1.07,1.44,1.53,2.36,2.08c0.74,0.45,1.36,0.99,1.79,1.83
					c0.45,0.88,1.16,1.62,1.78,2.4c0.9,1.12,2.13,1.6,3.53,1.59c0.73-0.01,1.47-0.17,1.94,0.62c0.03,0.05,0.12,0.09,0.17,0.08
					c1.1-0.19,1.92,0.37,2.72,1c1.7,0.26,3.21,1.33,5.02,1.14c0.24-0.02,0.59,0.04,0.71,0.2c0.36,0.48,1,0.43,1.36,0.74
					c1.09,0.93,2.49,1.31,3.6,2.15c1.22,0.92,2.45,1.87,3.52,2.95c1.65,1.67,3.56,3,5.38,4.46c0.3,0.24,0.71,0.34,1.06,0.52
					c0.88,0.46,1.84,0.7,2.73,1.19c0.84,0.46,1.91,0.45,2.8,0.92c0.7,0.37,1.45,0.66,2.15,1.03c0.28,0.15,0.53,0.4,0.74,0.65
					c0.44,0.5,0.85,1.03,1.27,1.54c0.57,0.69,0.92,1.41,0.73,2.38c-0.13,0.64,0,1.33-0.01,2c-0.01,0.46,0,0.94-0.13,1.38
					c-0.16,0.55-0.13,1.2-0.8,1.53c-0.8,0.39-1.55,0.77-2.48,0.43c-0.68-0.25-1.35-0.41-1.8-1.13c-0.38-0.6-0.99-1.09-1.6-1.48
					c-0.62-0.4-1.23-0.77-1.69-1.38c-0.48-0.64-1.23-0.82-1.97-0.85c-1.58-0.06-2.96-0.68-4.32-1.41c-0.82-0.44-1.7-0.76-2.53-1.17
					c-0.35-0.17-0.67-0.43-0.97-0.69c-0.3-0.26-0.6-0.54-0.82-0.87c-0.31-0.46-1.07-0.32-1.2-0.97c-0.1-0.52-0.14-1.07-0.31-1.57
					c-0.2-0.63-0.48-1.24-0.78-1.82c-0.11-0.22-0.36-0.48-0.58-0.52c-1.29-0.23-2.38-1.19-3.8-0.98c-0.8,0.12-1.57-0.02-2.14-0.78
					c-0.25-0.34-0.78-0.49-1.19-0.7c-0.11-0.06-0.26-0.05-0.39-0.09c-1.3-0.46-2.18-1.51-3.26-2.29c-1.01-0.73-2.27-1.1-2.93-2.29
					c-0.16-0.28-0.39-0.61-0.67-0.73c-1.1-0.46-1.75-1.41-2.51-2.23c-0.89-0.95-1.93-1.59-3.27-1.7c-0.26-0.02-0.52-0.11-0.77-0.19
					c-0.43-0.13-0.91-0.57-1.29-0.17c-0.49,0.51-1.23,0.81-1.43,1.62c-0.35,1.38-0.07,2.65,0.55,3.86c0.13,0.25,0.49,0.44,0.78,0.52
					c0.99,0.29,1.77,0.84,2.49,1.59c0.49,0.51,1.15,0.9,1.8,1.23c1.43,0.72,2.93,1.28,4.32,2.06c0.58,0.32,1.21,0.74,1.45,1.55
					c0.2,0.68,0.7,1.28,1.09,1.9c0.14,0.22,0.34,0.43,0.57,0.54c0.84,0.41,1.66,0.89,2.55,1.13c1.67,0.46,3.04,1.39,4.31,2.47
					c0.9,0.76,1.77,1.34,3,1.39c1.34,0.06,2.36,0.75,3.17,1.84c0.37,0.5,0.37,0.91,0.23,1.47c-0.29,1.19-0.93,2.02-2.02,2.58
					c-1.06,0.54-2.05,1.27-3.35,1.03c-1.45,0.61-3.04-0.16-4.51,0.46c-0.25,0.1-0.63-0.12-0.95-0.18c-1.11-0.23-2.2-0.51-3.37-0.28
					c-0.51,0.1-1.09,0.08-1.6-0.05c-1.03-0.27-2.04-0.08-2.96,0.22c-1.4,0.45-2.89,0.46-4.26,1.06c-0.31,0.14-0.82,0.06-1.14-0.1
					c-1.24-0.64-2.58-0.52-3.89-0.61c-0.39-0.03-0.81,0.08-1.18,0.2c-1,0.33-1.98,0.76-2.99,1.06c-0.93,0.27-1.79,0.59-2.88,0.16
					c-0.95-0.37-2.05-0.31-3.02-0.87c-0.63-0.36-1.42-0.24-2.16-0.03c-1.25,0.36-2.28,1.11-3.35,1.78
					c-0.19,0.12-0.32,0.42-0.35,0.66c-0.21,1.58,0.63,3.12,2.09,3.73c1.49,0.62,3.08,0.87,4.68,0.97c0.23,0.01,0.64-0.12,0.69-0.28
					c0.39-1.15,1.51-1.1,2.33-1.27c0.69-0.15,1.41-0.3,2.13-0.41c0.32-0.05,0.68-0.14,0.98-0.04c0.79,0.25,1.55,0.39,2.34,0.05
					c0.06-0.03,0.13,0,0.2-0.01c0.62-0.11,1.04,0.78,1.66,0.38c0.45-0.29,0.79-0.7,1.42-0.52c0.16,0.05,0.39-0.06,0.55-0.16
					c2.04-1.3,4.81-1.6,6.92-0.62c0.84,0.39,1.7,0.31,2.56,0.14c0.46-0.09,0.89-0.28,1.34-0.42c0.98-0.29,1.89-0.34,2.93,0
					c1.11,0.37,2.28,0.69,3.51,0.7c0.78,0,1.54,0.39,2.33,0.47c1.66,0.18,3.33,0.43,4.98,0.33c1.16-0.07,2.15,0.21,2.98,0.8
					c0.86,0.61,1.77,0.88,2.75,1.1c1.62,0.37,3.23,0.84,4.85,1.21c0.96,0.22,1.98,0.21,2.91,0.49c0.88,0.26,1.69,0.77,2.53,1.18
					c1.26,0.61,2.51,1.24,3.76,1.86c0.59,1.47,1.86,1.75,3.24,1.88c0.23,0.02,0.45,0.28,0.65,0.45c1.42,1.23,2.73,2.6,3.43,4.35
					c0.96,2.39,1.1,4.8-0.43,7.08c-0.74,1.11-1.43,2.25-2.16,3.38c-0.14,0.22-0.3,0.46-0.52,0.6c-0.82,0.54-1.22,1.39-1.75,2.15
					c-0.61,0.86-1.38,1.6-2.12,2.36c-0.28,0.29-0.67,0.42-1.11,0.28c-0.63-0.2-1.27-0.38-1.91-0.54c-0.11-0.03-0.32,0.01-0.36,0.09
					c-0.08,0.15-0.16,0.37-0.1,0.51c0.09,0.24,0.33,0.42,0.43,0.66c0.05,0.12-0.07,0.43-0.16,0.46c-0.44,0.11-0.96,0.31-1.34,0.17
					c-1.19-0.42-2.38-0.31-3.57-0.13c-1.27,0.19-2.53,0.08-3.78,0c-1.2-0.08-2.26-0.73-3.27-1.4c-0.44-0.29-0.89-0.59-1.37-0.81
					c-1.36-0.6-2.62-1.34-3.49-2.59c-0.3-0.43-0.7-0.55-1.17-0.66c-0.77-0.18-1.51-0.42-2.09-1.07c-0.39-0.43-0.95-0.8-1.5-0.95
					c-2.21-0.6-3.73-2.22-5.52-3.45c-1.57-1.08-2.98-2.47-5-2.83c-0.76-0.13-1.48-0.6-2.18-0.98c-1.13-0.61-2.27-1.14-3.54-1.35
					c-0.31-0.05-0.61-0.26-0.89-0.44c-1.59-0.97-3.29-1.73-4.93-2.62c-0.42-0.23-0.81-0.47-1.32-0.35c-0.53,0.13-0.95-0.1-1.17-0.55
					c-0.71-1.45-2.18-1.65-3.47-2.03c-0.61-0.18-1.07-0.38-1.5-0.84c-0.4-0.44-0.88-0.83-1.39-1.14c-1.69-1.05-3.24-2.3-4.99-3.26
					c-1.47-0.81-2.83-1.75-4.02-2.93c-0.23-0.23-0.52-0.59-0.77-0.59c-1.07,0.01-1.56-0.86-2.32-1.34c-3.33-2.09-7.08-0.7-8.14,2.68
					c-0.33,1.06-0.53,2.1,0.23,3.05c0.54,0.67,1.14,1.3,1.74,1.92c0.18,0.18,0.46,0.3,0.71,0.34c1.7,0.29,3.39,0.84,5.14,0.21
					c0.3-0.11,0.7-0.17,0.97-0.05c1.53,0.66,3.25,0.83,4.67,1.78c0.22,0.15,0.54,0.24,0.64,0.44c0.51,0.95,1.47,1.05,2.34,1.33
					c0.25,0.08,0.59,0.1,0.72,0.27c0.91,1.25,2.31,1.83,3.6,2.46c1.99,0.98,3.78,2.26,5.67,3.38c0.74,0.44,1.54,0.8,2.08,1.54
					c0.17,0.23,0.58,0.41,0.87,0.41c1.43-0.01,2.52,0.63,3.54,1.56c0.91,0.83,2.13,1.09,3.24,1.52c0.62,0.24,1.27,0.43,1.91,0.58
					c1.14,0.28,2,0.85,2.83,1.73c0.9,0.96,1.86,1.86,2.71,2.88c0.33,0.39,0.36,0.79,0.51,1.22c0.37,1.07,0.18,1.94-0.49,2.79
					c-0.28,0.36-0.57,0.78-0.67,1.22c-0.26,1.08-0.85,1.96-1.49,2.82c-0.99,1.35-0.99,2.87-0.85,4.41c0.05,0.54,0.4,1.02,0.96,1.18
					c0.63,0.17,1.01,0.6,1.43,1.04c0.57,0.59,1.25,0.92,2.12,0.97c0.99,0.06,1.96,0.35,2.94,0.54c0.33,0.06,0.68,0.24,0.97,0.17
					c1.58-0.38,3.04,0.19,4.53,0.53c0.97,0.23,1.86,0.75,2.91,0.7c0.24-0.01,0.54,0.13,0.73,0.3c0.87,0.74,1.88,0.91,2.99,0.92
					c0.72,0.01,1.44,0.21,2.16,0.32c0.13,0.02,0.32,0,0.39,0.08c0.98,1.14,2.34,0.71,3.55,0.85c0.99,0.11,1.99,0.2,2.99,0.25
					c1.02,0.05,1.89,0.32,2.78,0.92c1.79,1.21,3.84,1.87,6.04,1.56c1.38-0.2,2.61,0.03,3.89,0.51c1.27,0.47,2.55,0.95,3.47,1.91
					c1.14,1.19,2.48,2.2,3.29,3.71c0.77,1.43,1.84,2.62,3.4,3.25c0.25,0.1,0.48,0.33,0.72,0.33c1.48,0.01,2.6,0.98,3.91,1.44
					c0.3,0.11,0.55,0.35,0.81,0.55c0.26,0.2,0.48,0.53,0.77,0.62c2.35,0.77,3.79,2.92,6,3.9c0.23,0.1,0.46,0.3,0.61,0.51
					c0.84,1.23,2.12,1.8,3.43,2.3c0.64,0.24,1.21,0.45,1.56,1.13c0.39,0.77,1.11,1.1,1.99,1.14c1.11,0.05,2.06,0.51,2.79,1.36
					c0.21,0.25,0.46,0.54,0.51,0.84c0.12,0.77,0.51,1.34,1,1.91c0.64,0.75,0.34,1.37-0.67,1.49c-1.21,0.14-2.44,0.14-3.55-0.38
					c-1.4-0.66-2.82-0.59-4.3-0.59c-2.92,0-5.84,0.56-8.77-0.03c-0.58-0.12-1.15-0.25-1.72-0.41c-1.73-0.51-3.57-0.91-5.33-0.57
					c-1.94,0.37-3.55-0.3-5.21-0.96c-0.74-0.29-1.37-0.84-2.25-0.62c-0.16,0.04-0.38-0.1-0.55-0.2c-1.26-0.69-2.59-0.63-3.89-0.23
					c-1.11,0.34-2.24,0.38-3.37,0.39c-1.68,0.01-3.33,0.15-4.96,0.56c-0.19,0.05-0.41,0.14-0.58,0.09
					c-1.06-0.33-2.13-0.11-3.18-0.05c-2.3,0.13-4.5-0.35-6.69-0.92c-0.98-0.25-1.92-0.59-2.91-0.04c-0.15,0.09-0.39,0.05-0.59,0.03
					c-1.31-0.18-2.63-0.37-3.94-0.56c-0.2-0.03-0.42-0.03-0.58-0.13c-1.67-1.04-3.6-0.93-5.43-1.12c-1.26-0.13-2.42-0.42-3.33-1.18
					c-1.33-1.12-2.95-1.3-4.49-1.47c-1.7-0.2-3.47,0.02-5.2,0.18c-1.34,0.12-1.87,1.36-1.13,2.47c0.33,0.5,0.75,0.94,1.12,1.41
					c0.26,0.33,0.58,0.52,1,0.6c0.39,0.08,0.76,0.25,1.13,0.39c0.86,0.33,1.68,0.39,2.48-0.19c0.52-0.38,0.98-0.25,1.39,0.25
					c0.25,0.31,0.57,0.57,0.86,0.85c0.34,0.34,0.5,0.72,0.56,1.23c0.07,0.63,0.47,1.22,0.55,1.85c0.09,0.65-0.05,1.33-0.03,2
					c0.01,0.33,0.08,0.68,0.23,0.97c0.58,1.13,1.2,2.23,1.8,3.34c0.2,0.37,0.45,0.64,0.9,0.71c0.58,0.09,0.94,0.42,1.07,1.03
					c0.1,0.44,0.46,0.61,0.9,0.65c0.39,0.04,0.82,0.06,1.16,0.22c1.03,0.49,2.03,1.05,3.23,0.57c0.06-0.02,0.14-0.03,0.2,0
					c1.9,0.77,3.67-0.16,5.47-0.48c0.66-0.12,1.27-0.2,1.96-0.11c0.84,0.12,1.72-0.01,2.59-0.02c0.39-0.01,0.79-0.01,1.18-0.01
					c0.59,0,1.19-0.01,1.78,0.01c0.39,0.01,0.83-0.04,1.16,0.12c0.57,0.29,1.1,0.46,1.72,0.23c0.12-0.04,0.28-0.04,0.39,0.01
					c1.74,0.88,3.64,0.64,5.49,0.82c1.19,0.12,2.36,0.42,3.55,0.58c1.05,0.14,2.11,0.21,3.17,0.29c0.46,0.03,0.92,0.02,1.38,0
					c1.23-0.04,2.23,0.42,2.9,1.45c0.62,0.95,1.48,1.09,2.45,0.82c0.61-0.16,1.16-0.13,1.77-0.03c0.98,0.17,1.99,0.3,2.98,0.31
					c1.3,0.02,2.51,0.21,3.57,1.02c0.26,0.2,0.59,0.37,0.9,0.42c1.73,0.29,3.22,1.24,4.88,1.73c1.6,0.47,3.21,0.89,4.79,1.41
					c0.69,0.22,1.37,0.55,1.96,0.97c1.12,0.79,2.31,1.32,3.69,1.41c1.17,0.07,2.23,0.49,3.11,1.24c1.1,0.93,2.39,0.8,3.59,0.57
					c1.28-0.25,2.52-0.07,3.78-0.05c0.35,0.01,0.71,0.31,1.05,0.5c0.41,0.23,0.78,0.54,1.2,0.7c0.41,0.15,1.01-0.01,1,0.69
					c-0.01,0.72-0.32,1.3-1.04,1.55c-0.31,0.11-0.65,0.2-0.98,0.23c-1.55,0.13-2.79,0.97-3.86,1.96c-0.6,0.55-1.13,0.92-1.91,0.85
					c-1.19-0.12-2.05,0.37-2.75,1.29c-0.19,0.25-0.48,0.5-0.76,0.57c-0.91,0.2-1.66,0.84-2.66,0.83c-0.4,0-0.81,0.41-1.2,0.66
					c-0.34,0.21-0.66,0.69-0.97,0.66c-1.68-0.13-2.78,1.18-4.23,1.57c-0.13,0.04-0.25,0.09-0.38,0.14
					c-0.39,0.17-0.76,0.12-1.16-0.05c-0.55-0.23-1.12-0.46-1.71-0.52c-1.38-0.15-2.62,0.94-2.77,2.32
					c-0.11,1.04,0.31,1.61,1.38,1.86c0.94,0.22,1.27,0.04,1.65-0.91c0.1-0.25,0.17-0.51,0.27-0.75c0.22-0.51,1.16-0.88,1.69-0.67
					c0.05,0.02,0.08,0.28,0.02,0.34c-0.18,0.18-0.4,0.32-0.61,0.47c-0.2,0.14-0.61,0.16-0.41,0.52c0.11,0.19,0.44,0.39,0.65,0.37
					c1.16-0.06,2.24-0.37,2.97-1.35c0.26-0.36,0.55-0.53,0.98-0.58c0.79-0.1,1.58-0.23,2.36-0.39c0.32-0.06,0.71-0.12,0.93-0.33
					c0.82-0.8,1.71-0.61,2.6-0.23c0.66,0.28,1.27,0.22,1.94,0.07c1.68-0.38,3.37-0.75,5.1-0.87c0.32-0.02,0.67-0.15,0.92-0.34
					c0.73-0.55,1.47-0.52,2.25-0.16c0.24,0.11,0.56,0.29,0.75,0.22c1.53-0.61,2.81,0.58,4.25,0.55c0.78,0.48,1.52,0.34,2.27-0.08
					c0.36-0.2,0.63-0.06,0.83,0.27c0.37,0.63,0.91,1.22,1.08,1.9c0.24,0.93,0.43,1.93-0.44,2.78c-0.88,0.86-1.76,1.64-3.08,1.69
					c-0.9,0.03-1.65,0.52-2.4,0.95c-0.22,0.13-0.45,0.31-0.58,0.53c-0.31,0.5-0.44,1.2-0.87,1.49c-0.34,0.23-1.01-0.09-1.54-0.1
					c-0.99-0.02-1.82,0.45-2.49,1.11c-0.64,0.63-1.37,1.03-2.15,1.43c-1.77,0.91-3.57,1.81-5.01,3.25
					c-0.19,0.19-0.39,0.41-0.63,0.48c-1.58,0.48-2.64,1.75-4.03,2.53c-1.34,0.75-2.55,1.67-3.72,2.69c-0.58,0.51-1.38,0.8-2.13,1.07
					c-1.38,0.51-2.79,0.89-4.17,1.39c-1.48,0.54-1.71,0.94-1.72,2.54c0,0.26,0.03,0.53,0.01,0.79c-0.07,1.11,0.23,1.67,1.14,2.03
					c0.37,0.15,0.77,0.22,1.14,0.35c0.58,0.19,1.06,0.02,1.44-0.42c0.22-0.25,0.35-0.58,0.59-0.81c0.65-0.65,1.26-1.31,2.32-1.36
					c0.81-0.04,0.88-0.25,1.04-1.17c0.2-1.2,0.39-1.37,1.63-1.55c1.98-0.29,3.95-0.62,5.94-0.84c0.75-0.08,1.26-0.39,1.66-0.96
					c0.35-0.49,0.66-1.01,1.02-1.49c0.28-0.37,0.53-0.84,0.91-1.03c0.92-0.47,1.37-1.25,1.66-2.16c0.14-0.43,0.37-0.65,0.77-0.83
					c1.1-0.52,2.25-0.76,3.44-0.91c2.76-0.34,5.58-0.32,8.25-1.32C132.24,367.81,132.89,367.89,133.53,368.48z M54.01,157.86
					l0.01-0.14l0.08,0.02L54.01,157.86z M33.82,211.48c-0.05,0.03-0.09,0.06-0.14,0.09c-0.02-0.04-0.05-0.12-0.04-0.13
					c0.07-0.05,0.14-0.08,0.22-0.12C33.84,211.37,33.83,211.43,33.82,211.48z M39.37,312.28l0.03-0.17l0.09,0.04L39.37,312.28z
					 M107.49,354.53l-0.13-0.13l0.18,0.02L107.49,354.53z"/>
			</g>
			<g>
				<linearGradient id="SVGID_3_" gradientUnits="userSpaceOnUse" x1="48.6766" y1="111.1979" x2="276.3664" y2="399.5225">
					<stop  offset="0.1927" style="stop-color:#E6007D"/>
					<stop  offset="1" style="stop-color:#5C2582"/>
				</linearGradient>
				<path class="st3" d="M246.82,388.9c20.77,1.12,17.92-14.18,17.12-17.05c-0.8-2.87-3-8.99,3.59-10.19c6.59-1.2,6.84-6.4,4.91-8.8
					c-1.92-2.4-2.26-3.64-2.26-3.64s10.42-5.94,5.69-10.14c-2.57-1.3-4.21-5.3-4.64-7.79c-0.44-2.49,2.78-2.16,9.56-6.21
					c6.78-4.05,1.97-9.86-2.4-13.67c-4.07-3.56-9.94-12.76-10.82-18c4.36-1.32,4.82-3.68,4.82-3.68c-0.98,0.96-2.82,1.52-4.88,1.83
					c0.63-4.51,7.45-7.64,5.53-15.18c-0.17-3.22-3.59-9.08-7.42-21.22c-3.99-12.65-14.16-25.68-23.44-31.1
					c-14.34-7.36-28.27-11.25-41.14-12.6l-40.05,178.65l41.01,9.19c2.45-4.87,5.7-9.61,9.76-14.09
					C225.84,380.85,226.05,387.78,246.82,388.9z"/>
			</g>
		</g>
	</g>
</g>
</svg>
